<?xml version="1.0" encoding="UTF-8" standalone="no"?>
<svg
   id="Layer_1"
   data-name="Layer 1"
   viewBox="0 0 512 512"
   version="1.1"
   width="512"
   height="512"
   sodipodi:docname="list-pending.svg"
   xmlns:inkscape="http://www.inkscape.org/namespaces/inkscape"
   xmlns:sodipodi="http://sodipodi.sourceforge.net/DTD/sodipodi-0.dtd"
   xmlns:xlink="http://www.w3.org/1999/xlink"
   xmlns="http://www.w3.org/2000/svg"
   xmlns:svg="http://www.w3.org/2000/svg">
  <sodipodi:namedview
     id="namedview1"
     pagecolor="#505050"
     bordercolor="#ffffff"
     borderopacity="1"
     inkscape:showpageshadow="0"
     inkscape:pageopacity="0"
     inkscape:pagecheckerboard="1"
     inkscape:deskcolor="#505050">
    <inkscape:page
       x="0"
       y="0"
       width="512"
       height="512"
       id="page2"
       margin="0"
       bleed="0" />
  </sodipodi:namedview>
  <defs
     id="defs1">
    <style
       id="style1">.cls-1{fill:#707070;}</style>
    <clipPath
       clipPathUnits="userSpaceOnUse"
       id="clipPath96">
      <path
         id="path97"
         style="fill:#ff0000;fill-opacity:1;fill-rule:nonzero;stroke:none"
         d="M 51.080078,-0.00390625 V 512.00781 H 460.98438 V -0.00390625 Z M 178.20508,217.16602 c 0.24818,0.008 0.49759,0.0308 0.74414,0.0742 0.25063,0.0442 0.50253,0.0907 0.74023,0.18165 0.33645,0.12862 0.64893,0.31667 0.97266,0.4746 0.24267,0.20395 0.50799,0.38174 0.72656,0.61133 0.83229,0.87423 1.12753,1.87373 1.08203,3.06446 -0.0208,0.54536 -0.18112,0.91628 -0.34961,1.41211 -0.006,0.01 -0.0117,0.0196 -0.0176,0.0293 0.0429,1.13254 -0.56034,2.50242 -2.09375,3.78125 -0.0676,0.0566 -0.0802,0.0819 -0.0899,0.0918 l -0.002,0.002 h -0.002 l -0.002,0.002 h -0.002 l -0.002,0.002 c -0.006,2.6e-4 -0.0187,-8.6e-4 -0.0332,-0.002 -0.12986,0.13825 -0.24851,0.28609 -0.36523,0.43555 -0.033,0.0422 -0.0612,0.0878 -0.0977,0.12695 h -0.002 -0.002 v -0.002 l -0.002,-0.002 -0.002,-0.002 -0.002,-0.002 h -0.002 -0.002 c -0.053,0.0914 -0.0961,0.18735 -0.14453,0.28125 -0.2425,0.45363 -0.47079,0.9154 -0.76367,1.33985 -0.0883,0.0885 -0.16241,0.30449 -0.19531,0.37109 -0.17725,0.35865 -0.37108,0.70831 -0.59376,1.04102 -0.10425,0.13803 -0.20118,0.28165 -0.3125,0.41406 -0.2021,0.24044 -0.42213,0.46167 -0.65429,0.66992 -0.0805,0.77474 -0.38735,1.66224 -0.98633,2.62695 -0.21453,0.34552 -0.42178,0.69682 -0.64453,1.03711 -1.32631,2.0262 -2.75736,3.99022 -4.16797,5.95703 -1.88624,2.62997 -2.89476,4.00919 -4.81445,6.65235 -2.5347,3.4508 -4.99239,6.95676 -7.45508,10.45898 -3.5589,5.06118 -8.67229,1.4654 -5.11328,-3.5957 0.0993,-0.14116 0.19762,-0.28266 0.29687,-0.42383 -0.68832,-0.83761 -0.86575,-2.19759 -0.13476,-3.77344 l -3.02735,2.58399 c -0.0234,0.02 -0.0469,0.039 -0.0703,0.0586 -0.19617,0.48007 -0.32717,0.87095 -0.51562,1.46094 -0.0759,0.23772 -0.22297,0.70071 -0.25977,0.99023 -0.011,0.0844 -0.002,0.17086 -0.004,0.25586 -0.11182,6.18618 -6.03305,6.77803 -6.22265,0.59375 -0.007,-0.24485 -0.0334,-0.4897 -0.0215,-0.73437 0.0199,-0.40905 0.0484,-0.82089 0.11719,-1.22461 0.18269,-1.07192 0.51218,-2.13148 0.90625,-3.1543 0.096,-0.43682 0.28114,-0.89556 0.56836,-1.36133 0.1705,-0.37332 0.35195,-0.74145 0.52539,-1.11328 0.51892,-1.03524 1.07436,-2.05203 1.68164,-3.03711 0.10692,-0.20494 0.23593,-0.41059 0.38867,-0.61523 0.36822,-0.56807 0.75576,-1.12452 1.16407,-1.66602 0.41427,-0.5494 0.71341,-0.91816 1.03125,-1.28906 -0.0506,-0.1596 -0.0907,-0.3307 -0.1211,-0.51367 -0.0159,-0.036 -0.0307,-0.0724 -0.0449,-0.10938 -0.57206,0.33836 -1.25336,0.7408 -2.07617,1.22657 -2.23082,1.317 -4.08525,1.13888 -5.09571,0.25586 -6.16282,3.77162 -10.56711,7.09046 -17.10546,11.73437 -5.04431,3.58276 -8.66429,-1.51687 -3.61719,-5.0957 8.20255,-5.81632 13.00249,-9.50888 21.84961,-14.55469 4.41924,-2.52044 7.02707,-3.9098 9.15234,-4.91797 -1.08512,-0.66852 -2.21106,-1.91396 -2.97851,-2.88672 -0.0215,0.21416 -0.17346,0.48236 0.125,0.56445 0.42874,0.72662 0.3815,0.87348 0.99804,1.28711 0.12372,0.083 0.25256,0.14805 0.38867,0.19336 0.0278,0.004 0.0563,0.007 0.084,0.0117 -0.0415,-0.0211 -0.0613,-0.0324 -0.0664,-0.0371 v -0.002 h 0.002 c 0.0263,0.004 0.17938,0.0675 0.19726,0.0801 v 0.002 h -0.002 l -0.002,-0.002 c -0.073,-0.013 -0.1438,-0.0298 -0.2129,-0.0527 -0.28423,-0.0371 -0.5742,-0.0247 -0.85742,-0.0156 -6.18417,0.19318 -7.3235,-5.08738 -1.22461,-6.12891 0.47894,-0.0818 0.96047,-0.12002 1.44336,-0.125 0.4829,-0.005 0.96583,0.0237 1.44727,0.0742 0.84647,0.12718 1.70628,0.34923 2.39648,0.88867 0.28141,0.21994 0.5666,0.45212 0.76368,0.75 0.28861,0.4363 0.44817,0.94701 0.67187,1.41993 2.5e-4,0.003 -2.5e-4,0.006 0,0.01 1.26873,-1.52821 2.79205,-2.82851 4.28711,-4.12891 0.17744,-0.14863 0.35935,-0.29098 0.54492,-0.42773 0.63257,-0.6975 1.31175,-1.34979 2.06836,-1.91406 0.31618,-0.23581 0.65662,-0.43881 0.98438,-0.65821 1.3936,-0.78893 2.9363,-1.3039 4.50976,-1.59375 0.28853,-0.0532 0.57925,-0.0915 0.86914,-0.13671 0.7814,-0.0668 1.56947,-0.18073 2.35742,-0.20899 0.26265,-0.009 0.5247,-0.009 0.78711,0.006 0.8863,0.0497 1.00092,0.11145 1.83399,0.30274 0.25556,0.0991 0.51643,0.18479 0.76953,0.28906 0.29425,-0.12629 0.59484,-0.23744 0.89844,-0.34766 0.71208,-0.21769 1.45661,-0.34529 2.20117,-0.32226 z m -0.19141,2.13671 c -0.16744,2.6e-4 -0.37025,0.0809 -0.59961,0.21875 0.17897,0.21242 0.33998,0.43644 0.48047,0.67188 0.10273,0.17215 0.19017,0.35158 0.27539,0.5332 0.10879,-0.0352 0.21607,-0.064 0.32227,-0.0898 0.0754,-0.96321 -0.11743,-1.33454 -0.47852,-1.33399 z" />
    </clipPath>
  </defs>
  <title
     id="title1">checklist-handdrawn</title>
  <g
     id="g100"
     transform="translate(5.6568567,-7.4852661)">
    <path
       id="use1"
       style="display:inline"
       class="cls-1"
       d="M 253.73633,0.00390625 C 252.32065,0.02848232 250.90694,0.12038304 249.5,0.27929688 245.1368,0.65831254 240.91214,2.0011585 237.13086,4.2109375 235.96239,4.9663898 234.90808,5.8852137 234,6.9394531 h 0.43945 c -3.23881,2.1001209 -6.22183,4.5705629 -8.88867,7.3613279 -1.61703,1.663797 -3.05824,3.489854 -4.30078,5.449219 -3.27,0 -6.49023,0.09945 -9.49023,0.189453 l -4,0.06055 h -1.09961 l -1.68946,0.07031 c -1.13,0.08 -2.25054,0.08 -3.31054,0.25 -13.52501,1.562597 -25.427,9.650719 -31.85938,21.650391 -9.36,0 -18.56023,0.09016 -27.24023,0.160156 l -14.1211,0.05859 h -3.90039 l -4.80859,0.230469 c -3.14854,0.196754 -6.28164,0.590757 -9.38086,1.179687 C 94.642871,46.740858 80.387084,54.913663 69.740234,66.880856 58.997113,78.792324 52.526505,93.942177 51.349609,109.93945 l -0.269531,5.89063 v 33.92969 38.70117 c 0.08,44.65 0.160235,88.77945 0.240234,133.43945 0,37.72 -0.09086,78.06883 -0.130859,113.29883 -0.05524,4.00691 0.122144,8.01364 0.53125,12 0.32,2.1 0.59,4.21101 1,6.29101 l 1.568359,6.16016 c 2.473221,8.07268 6.304822,15.66454 11.330079,22.44922 10.014923,13.63628 24.460474,23.36515 40.861329,27.51953 4.05975,1.07394 8.21149,1.76383 12.40039,2.06055 l 6.1582,0.28125 h 5.1211 20.51953 l 41.50976,-0.13086 h 16.13086 c 34.24,0.5 44.43039,-0.20078 66.15039,-0.30078 4.75059,0.0535 9.50054,-0.15322 14.22852,-0.61914 0.18891,-0.0183 0.29145,-0.0398 0.32031,-0.0586 l 0.002,-0.002 0.002,-0.002 0.002,-0.002 v -0.002 -0.002 -0.002 c -1.4e-4,-3.6e-4 -10e-4,-0.005 -0.002,-0.006 h -0.002 l -0.002,-0.002 -0.002,-0.002 c -0.16755,-0.11847 -2.73295,-0.24663 -2.88867,-0.36328 l -0.002,-0.002 -0.002,-0.002 v -0.002 -0.002 -0.002 -0.002 -0.002 l 0.002,-0.002 0.002,-0.002 0.002,-0.004 c 0.0463,-0.0335 0.32074,-0.0663 0.93945,-0.0976 8.38,-0.42 33.74969,-0.86875 27.67969,-1.21875 -7.77,-0.45 8.09023,-0.65164 21.49023,-0.93164 l -40.75976,-0.31836 c 42,-0.31 16.52914,-1.20039 67.86914,-1.40039 l -17.23047,-0.14063 41.45117,-2 h -86.20117 v -0.002 -0.002 l 0.002,-0.002 v -0.002 h 0.002 v -0.002 h 0.002 v -0.002 c 0.12549,-0.16241 2.58702,-0.35388 2.69922,-0.52148 l 0.002,-0.002 v -0.002 c 1.5e-4,-0.003 2e-4,-0.006 0,-0.008 v -0.002 l -0.002,-0.002 -0.002,-0.002 v -0.002 l -0.002,-0.002 c -0.0902,-0.0987 -1.10372,-0.19092 -4.03125,-0.26562 -21.91,-0.58 -64.28,-0.31 -95,-0.25 -25.48,0 -44.09945,0 -55.43945,-0.25 L 129,502.69922 c -4.28629,0.0656 -8.57224,-0.15105 -12.83008,-0.64844 -2.39837,-0.29385 -4.77374,-0.75196 -7.10937,-1.37109 -2.51494,-0.57578 -4.97982,-1.35169 -7.3711,-2.32031 -10.126312,-3.89513 -19.10174,-10.29041 -26.089841,-18.58985 l 0.06055,-0.13867 c 10.580136,12.52076 25.564981,20.49981 41.859371,22.28906 8.31,0.7 15.46063,0.24961 23.14063,0.34961 l 22.68945,-0.0488 -28.85938,-0.0898 c -4.79,-0.06 -9.22958,0.13953 -14.34961,-0.23047 -4.9597,-0.34823 -9.86435,-1.25434 -14.62109,-2.70117 -23.199992,-7.08 -41.279136,-28.44914 -44.119136,-52.61914 -0.365052,-2.98658 -0.561977,-5.99132 -0.589844,-9 V 412.17969 378.5 c 0.06,-35.35 0.729531,-81 1.269531,-60 0.3,15.7 0.719141,38.44953 1.119141,59.26953 v 19.38086 l -0.31836,-2.50977 0.330079,43.21876 c 0.14,-15.54001 0.208515,-24.15915 0.228515,-26.11915 0.204087,-0.68572 0.366651,-1.95314 0.515625,-2.01953 l 0.002,-0.002 h 0.002 0.002 0.002 l 0.002,0.002 h 0.002 c 4.44e-4,10e-5 0.0046,10e-4 0.0059,0.002 l 0.002,0.002 c 0.02504,0.013 0.05156,0.0619 0.07617,0.15625 0.5,2 0.999219,-8.36141 1.449219,23.05859 -0.1,6.44 0.340469,14.57977 2.480469,21.25977 1.321678,4.58882 3.255751,8.97858 5.75,13.05078 1.23,1.8 2.639922,4.08094 5.169922,7.21094 3.510483,4.41569 7.639448,8.30201 12.259395,11.53897 6.193383,4.31935 13.176354,7.37747 20.550784,9 5.22804,1.06923 10.5667,1.49882 15.89844,1.2793 2.15249,-0.0656 2.96372,-0.14122 3.05273,-0.22266 v -0.002 l 0.002,-0.002 h 0.002 v -0.002 c 2.2e-4,-4.8e-4 0.001,-0.005 0.002,-0.006 v -0.002 -0.002 h -0.002 v -0.002 -0.002 -0.002 h -0.002 v -0.002 c -0.11219,-0.16099 -2.67929,-0.34898 -3.125,-0.55273 l 11.81055,-0.12109 -15.84961,-0.0703 c -4.35806,-0.0794 -8.69148,-0.67332 -12.91016,-1.76953 -7.31094,-1.86585 -14.175208,-5.17414 -20.189449,-9.73047 -1.151528,-0.65449 -2.257558,-1.38597 -3.310547,-2.18945 -8.414597,-7.33933 -14.500686,-16.97795 -17.509766,-27.73047 -1.405474,-5.10856 -2.125325,-10.38134 -2.140625,-15.67969 v -16.49023 c 0,-22.16 -0.100156,-44.7293 -0.160156,-71.2793 l 0.240234,10.35938 c 0,-12.78 0.08109,-23.53961 0.121094,-32.59961 0.27,-4.1 0.53,-5.52875 0.75,-12.21875 0.12,-3.51 0.27,-18.31094 0.25,-24.46094 0.05,-47.55 0.09844,-91.31094 0.148437,-137.21094 v -33.33984 c -0.287579,-6.00381 0.17299,-12.02008 1.371094,-17.91016 1.296375,-5.891622 3.589077,-11.51868 6.779297,-16.638669 6.451077,-10.636028 16.276298,-18.806982 27.910157,-23.210938 5.8162,-2.270802 11.98791,-3.496018 18.23047,-3.619141 6.46,-0.17 13.25961,-0.07109 19.84961,-0.121093 l 21.75,-0.05859 v 0.208984 l -0.0898,2.089844 v 0.380859 l -43,0.208985 c -3.33,0 -10.24984,1.72 -13.83984,3.25 -0.37383,0.183515 -0.56188,0.28599 -0.58398,0.322265 l -0.002,0.002 v 0.002 0.002 0.002 l 0.002,0.002 0.002,0.002 h 0.002 0.002 l 0.002,0.002 c 0.14573,0.03392 1.94861,-0.551015 4.71679,-1.125 1.58448,-0.410948 3.19988,-0.691828 4.83008,-0.839843 1.81546,-0.289407 3.65193,-0.426603 5.49024,-0.410157 3.68,-0.17 8.70929,0.08937 12.77929,0.109375 8.44,0.16 15.56063,0.310469 17.14063,0.480469 1.89,0.2 6.39992,0.320391 12.41992,0.400391 v 1.40039 c 0,6.29 0.0889,12.539063 0.12891,18.789063 l 0.0801,9.380859 c 0,0.61 -6.3e-4,1.929141 0.10937,3.119141 0.0423,1.196718 0.16303,2.389376 0.36133,3.570306 2.81772,19.0963 18.19483,33.86935 37.38867,35.91993 l 4.30078,0.25 h 2.91016 l 5.78906,0.0801 11.52148,0.0899 23.22852,-0.15039 h 4.54102 c 9.64,0.53 12.5089,-0.21032 18.6289,-0.32031 1.36466,0.0456 2.72467,-0.18217 4,-0.66993 0.52,-0.19 -1.40898,-0.41961 -0.45898,-0.59961 2.36,-0.45 9.51078,-0.93054 7.80078,-1.31054 -2.19,-0.48 2.27883,-0.7 6.04883,-1 l -11.48047,-0.33985 c 11.83,-0.33 4.66109,-1.29 19.12109,-1.5 l -4.84961,-0.15039 11.66992,-2.18945 H 281.1507 c 0,-0.29 1.93914,-0.64891 -0.38086,-0.87891 -6.17,-0.62 -18.09953,-0.33148 -26.76953,-0.27148 -7.18,0.05 -12.41914,2.3e-4 -15.61914,-0.25977 -3.47,-0.3 -7.61141,-0.34984 -13.19141,-0.33984 l -8.49023,-0.0703 v -0.14844 l 25.57031,-0.24024 -16,-0.11132 h -19.18945 c -7.36769,0.065 -14.52792,-2.43843 -20.25,-7.08008 -4.27358,-3.50951 -7.46354,-8.15968 -9.19922,-13.41016 -1.21,-4.07 -1.08032,-5.99945 -0.0703,-2.93945 2.12656,5.66678 5.84119,10.60064 10.69922,14.21094 1.52685,1.17449 3.13432,2.24026 4.81054,3.18945 -0.27472,-0.005 -0.54881,-0.0281 -0.82031,-0.0703 3.81948,2.0676 8.06906,3.2146 12.41016,3.34961 -2.57963,-0.23699 -5.11193,-0.84277 -7.51954,-1.79883 -0.15,-0.34 -0.54101,-0.69078 -0.29101,-0.80078 0.25,-0.11 -0.0998,-0.61875 0.41016,-0.71875 0.51,-0.1 1.9407,0.37976 6.2207,0.75976 3.3801,0.10701 6.76358,-0.007 10.12891,-0.33984 1.25,-0.29 3.1014,-0.28055 7.4414,-0.31055 4,0 9.69992,-0.15031 11.16992,-0.32031 1.85,-0.21 0.18,-0.51938 0,-0.85938 l 3.33008,-0.13085 -15,-0.0606 -1.16992,0.39062 c -6.75,-0.3 -13.24109,0.26 -18.37109,-1 -5.89799,-1.38515 -11.08864,-4.87313 -14.59961,-9.81054 0.5694,0.66511 1.17377,1.29947 1.81054,1.90039 -1.74128,-2.09299 -3.12691,-4.45781 -4.10156,-7 0,-1.07 0.002,-1.45985 -0.1582,-3.08985 -0.29918,-1.926431 -0.46624,-3.871073 -0.5,-5.820307 -0.11,-6.7 -0.07,-13.13 0,-19.5 l 0.10937,-9.539062 c -0.10388,-2.894903 0.0838,-5.792913 0.56023,-8.650233 0.57119,-2.517446 1.5397,-4.927848 2.86914,-7.140625 3.16906,-5.417407 8.41434,-9.30445 14.51953,-10.759765 1.55677,-0.355318 3.14422,-0.559392 4.74024,-0.609376 L 211.82031,38.5 h 4 c -0.058,1.156175 -0.058,2.314528 0,3.470703 0.35385,8.51407 3.43508,16.688923 8.78907,23.318359 4.63426,5.620626 10.71174,9.873043 17.58007,12.300782 5.79275,2.067679 11.9599,2.876027 18.08985,2.371094 9.06305,-0.692253 17.55856,-4.680496 23.88086,-11.210938 l 1.81054,-1.900391 c 4,-3.94 4.22024,-5.930543 5.74024,-9.060547 0.39211,-0.716543 0.52589,-1.54613 0.3789,-2.349609 -0.06,-0.34 -0.72015,0.55 -0.66015,0 0.14,-1.4 0.93,-5.23875 0.25,-4.46875 -0.78,1 -0.33016,-1.391094 -0.16016,-3.371094 -0.5367,1.931449 -1.22503,3.817517 -2.05859,5.640625 0.95,-2.94 0.67984,-3.629453 0.58984,-4.439453 -0.10347,-1.783794 -0.0197,-3.573519 0.25,-5.339843 l -0.49023,2.36914 c -0.39144,-1.963213 -0.95749,-3.887529 -1.69141,-5.75 -0.007,3.756434 -0.68441,7.481466 -2,11 -0.27,-0.11 -0.30867,-1.050625 -0.88867,-0.140625 -1.44,2.42 -3.77117,7.19 -6.45117,10 -1.48397,1.804614 -3.31676,3.291302 -5.38868,4.371094 -1.44999,0.6 -3.00023,1.529297 -5.24023,2.529297 -1.14428,0.477192 -2.31634,0.884836 -3.50977,1.220703 l -0.0508,-0.140625 c 3.52338,-1.145805 6.80494,-2.932255 9.67969,-5.269531 -1.86549,1.350378 -3.85795,2.516026 -5.94922,3.480468 -4.99727,2.303283 -10.54425,3.145623 -16,2.429688 -4.35,-0.5 -9.07101,-3.41 -6.54101,-3 2.23767,0.36653 4.50465,0.523461 6.77148,0.46875 l 2.12891,0.160156 -0.29883,0.330078 c 1.60456,-0.02011 3.20407,-0.184175 4.7793,-0.490234 -1.72,0 -2.66086,-0.06883 -2.88086,-0.04883 -0.1,-0.26 -0.27899,-0.450625 -0.20899,-0.640625 0.18,-0.54 -0.81945,-1.079922 2.31055,-1.669922 1.26,-0.33 3.21898,-0.829688 3.45898,-1.179688 0.24,-0.35 1.0011,-0.480781 2.3711,-1.050781 1.21051,-0.427306 2.33688,-1.063204 3.32812,-1.878906 0.43,-0.51 -0.20973,-0.480233 -0.42968,-0.740235 l 0.86132,-0.679687 c -1.37971,0.870637 -2.86076,1.569187 -4.41015,2.080078 l -0.23047,0.5 c -4.16388,1.063862 -8.50579,1.234264 -12.74024,0.5 0.33301,0.02085 0.66699,0.02085 1,0 -0.96364,-0.239569 -1.91197,-0.536983 -2.83984,-0.890625 -0.17753,-0.420296 -0.43188,-0.803803 -0.75,-1.130859 -0.5815,-0.417813 -1.1932,-0.791888 -1.83008,-1.119141 -3.57771,-1.785601 -6.52039,-4.62737 -8.42969,-8.140625 -0.56,-0.8 -0.91937,-1.819297 -1.35937,-2.529297 C 234.40319,44.231773 233.86807,39.515227 234.85938,35 236.02672,29.294403 239.28755,24.232444 244,20.810547 c 1.66,-1.37 4.57031,-2.461094 3.82031,-2.871094 -0.41,-0.17 0.30891,-0.65875 3.12891,-1.21875 l 2.18164,-0.361328 c 5.60687,-0.691547 11.27713,0.630499 16,3.730469 0.65496,0.490903 1.27615,1.025313 1.85937,1.599609 l -0.33984,-0.128906 c 4.37034,3.370694 7.43758,8.151698 8.67969,13.529297 0.39,-0.69 1.05078,0.729609 1.30078,3.099609 0.65692,0.469501 1.25728,1.013488 1.78906,1.621094 0.63,1 1.36,-1.131406 0,-6.441406 -0.92571,-3.328778 -2.46513,-6.455325 -4.53906,-9.21875 -1.28302,-1.771096 -2.81209,-3.350147 -4.54102,-4.689453 C 268.71384,16.13283 263.2135,14.234196 257.51953,14 c -1.28336,-0.05439 -2.569,0.01231 -3.83984,0.199219 -1.95398,0.296682 -3.86666,0.820408 -5.69922,1.560547 0.31,-0.84 -1.00031,-0.949452 -4.82031,1.060546 -1.86343,1.078885 -3.59511,2.370761 -5.16016,3.84961 -5.22239,4.793886 -8.31163,11.476576 -8.58008,18.560547 0,0 -0.0691,0.05961 -0.11914,0.09961 v -1.070313 c 0.52255,-9.066077 5.57913,-17.258227 13.44922,-21.789063 0.65198,-0.310822 1.31953,-0.587881 2,-0.830078 1.95392,-0.896466 4.00359,-1.567457 6.10938,-2 -0.22,-0.16 -0.14024,-0.430937 -0.74024,-0.460937 -1.81721,-0.110543 -3.64105,-0.02344 -5.43945,0.259765 3.17,-1.69 3.2507,-1.599219 5.7207,-1.699219 0.6693,-0.01952 1.337,-0.07625 2,-0.169922 3.95878,-0.415793 7.95254,-0.368599 11.90039,0.140626 0.68158,0.0032 1.35774,0.121428 2,0.349609 3.31667,1.178099 6.38758,2.957874 9.0586,5.25 4.76999,4.11 7.48156,8.28914 7.35156,6.369141 0,-0.300002 0.0998,-0.369063 0.33984,-0.289063 1.59744,3.103116 2.73876,6.420502 3.38867,9.849609 h 2.09961 l 0.13086,0.410157 h -2.16015 c 0.19,1.18 0.32015,2.370312 0.41015,3.570312 1.29,-0.05 2.31031,-0.121172 3.07031,-0.201172 l 0.0801,0.07031 c 0.06,0 0.12946,3.9e-4 0.18946,-0.09961 l 0.30078,-0.06055 c 0.0379,0.05067 0.0651,0.108468 0.0801,0.169921 0.60001,2.9 1.08915,1.940938 1.11915,-0.789062 h 0.35937 c 0.14,0.55 0.31992,1.130391 0.41992,1.650391 v -1.671876 h 8.25 c 2,0.05 4.37078,-0.07992 6.30078,0.08008 7.69949,0.490488 14.76924,4.420599 19.25,10.701171 2.24953,3.07832 3.7587,6.63403 4.41016,10.390626 0.66,3.64 0.34992,7.758593 0.41992,11.808593 -0.06,2.39 -0.12945,4.760625 -0.18945,7.140625 l -0.0996,-1 0.0488,11.900391 c -0.05,4 0.24097,8.05914 -0.28907,11.619141 -1.17354,7.553068 -5.66835,14.183478 -12.25003,18.070318 1.63,-0.51 -1.55992,2.55 -7.91992,4 -1.34329,0.93282 -2.81594,1.66388 -4.37109,2.16992 -1.35,0.43 -0.66977,0.66039 2.24023,0.65039 5.13452,-0.36539 10.04997,-2.22497 14.14063,-5.34961 7.61317,-5.64789 12.01851,-14.63399 11.82031,-24.111325 0,-5.66 -0.10086,-12.059844 -0.13086,-16.839844 -0.09,-3.53 -0.18929,-7.068672 -0.2793,-10.638672 -0.09,-3.57 3.2e-4,-7.28 -0.92968,-11 -1.90381,-7.703194 -6.8953,-14.282693 -13.80078,-18.191406 -3.04094,-1.701847 -6.3883,-2.785775 -9.84961,-3.189453 -5,-0.49 -9.74118,5.44e-4 -15.95117,0.06055 0.61,-0.34 0.31999,-0.560938 -1,-0.710938 0,-0.2 -3.4e-4,-0.399375 -0.0703,-0.609375 h 9.86133 c -0.48,-0.2 -0.16133,-0.419609 -1.61133,-0.599609 L 292,31.730469 c 0,-0.23 -0.10016,-0.451404 -0.16016,-0.691407 3.33516,-0.198121 6.68125,-0.104012 10,0.28125 l 4.91016,0.199219 c 5.98659,0.311474 11.76706,2.289485 16.68945,5.710938 3.84054,2.7262 7.10317,6.185981 9.59961,10.179687 1.00416,1.53203 1.81747,3.180953 2.42188,4.910156 1.59,4.33 1.63836,9.608907 1.56836,13.378907 v 12.25 c 0,7.41 0.20086,13.630312 0.38086,18.070312 0,4.829999 -0.36071,7.061329 0.52929,4.861329 0.47,-1.540005 0.78063,0.36937 0.14063,3.85937 -0.91508,4.40581 -2.84287,8.53823 -5.63086,12.07032 -3.82432,4.73879 -8.71346,8.50769 -14.26953,11 -3.15,1.46 -4.42016,1.81953 -4.91016,2.26953 -0.0281,0.0204 -0.042,0.04 -0.0449,0.0547 v 0.002 0.002 c 4e-5,7.7e-4 -1.1e-4,0.005 0,0.006 v 0.002 l 0.002,0.002 v 0.002 l 0.002,0.002 0.002,0.002 c 0.0734,0.0957 0.77875,0.0509 0.8418,0.14648 1.8e-4,3.4e-4 10e-4,0.005 0.002,0.006 l 0.002,0.002 v 0.002 0.002 0.002 0.002 0.002 c 3e-5,10e-4 8e-5,0.006 0,0.006 v 0.002 c -0.0225,0.0605 -0.23754,0.16359 -0.80664,0.34571 -3.19125,0.83375 -4.64692,1.13783 -4.69336,1.30468 v 0.002 0.002 0.002 0.002 c 4e-5,4.3e-4 3e-5,0.005 0,0.006 l 0.002,0.002 0.002,0.002 c 0.0263,0.0542 0.22039,0.0962 0.57031,0.13867 3.44098,-0.0236 6.85051,-0.6571 10.07031,-1.87109 -2.61328,1.21584 -5.36358,2.11228 -8.1914,2.66992 4.92924,-0.56651 9.69213,-2.128 14,-4.58984 2.71823,-1.57621 5.22526,-3.49128 7.46093,-5.69922 1.83782,-1.87035 3.53269,-3.87598 5.07032,-6 2.31989,-3.26044 4.11506,-6.86397 5.32031,-10.67969 0.6307,-2.03074 1.0855,-4.11198 1.35937,-6.220702 0.14673,-1.071319 0.2367,-2.149647 0.26954,-3.230469 l 0.0703,-1.59961 V 93.710938 75.089844 c 0,-3.85 -5e-4,-7.75 -0.0606,-11.75 l 24.16016,0.179687 h 15.24023 3.74024 l 3.25976,0.169922 c 2.15406,0.132914 4.29802,0.397077 6.41992,0.791016 17,3.26 30.72016,15.10914 36.91016,28.36914 C 431.77168,87.048402 428.30326,81.722338 424,77.109375 420.16488,72.930697 415.67194,69.407604 410.69922,66.679688 405.90134,64.308048 400.75155,62.72776 395.44922,62 c -2.82452,-0.413673 -5.67468,-0.627745 -8.5293,-0.640625 h -9.58008 -32.74023 c 0,-0.71 -0.0789,-1.5 -0.12891,-2.25 0,-0.17 -5.8e-4,-0.339531 -0.0605,-0.519531 l 29.34961,-0.128906 c 5.66,0.06 12.34968,-0.30086 18.17968,0.11914 5.59189,0.389019 11.09514,1.605382 16.33008,3.609375 7.75125,2.923281 12.50801,6.489656 12.7207,6.425781 h 0.002 l 0.002,-0.002 0.002,-0.002 v -0.002 -0.002 -0.002 -0.002 c -0.01,-0.05003 -0.16664,-0.220326 -0.47656,-0.533204 -0.28578,-0.261561 -0.43928,-0.423913 -0.44922,-0.470703 v -0.002 -0.002 -0.002 -0.002 l 0.002,-0.002 h 0.002 l 0.002,-0.002 h 0.002 0.002 c 0.13641,-0.0081 1.5389,0.973437 4.53906,3.21289 7.49288,6.184123 13.29699,14.165663 16.87068,23.199783 2.75632,6.87232 4.18454,14.20496 4.20899,21.60938 v 172.58007 c -0.06,8.53 -0.11969,16.88985 -0.17969,25.33985 l -0.0898,-3.61914 c 0,28.15 0.0696,56.31015 0.0996,84.66015 0,14.18 0.0174,28.41255 0.0508,42.69922 0.18084,14.12202 -4.73247,27.83643 -13.83985,38.63086 0.56875,-0.56601 0.89149,-0.83135 0.97461,-0.82812 5e-4,7e-5 0.004,10e-4 0.006,0.002 h 0.002 0.002 l 0.002,0.002 0.002,0.002 0.002,0.002 v 0.002 h 0.002 v 0.002 0.002 c 0.0563,0.18152 -1.39527,2.05441 -4.18164,5.10351 -6.4058,6.49476 -14.27159,11.36384 -22.9414,14.20117 -5.32,2.10001 -8.84024,3.58938 -15.74024,4.35938 -1.49344,0.18352 -2.279,0.32567 -2.33203,0.41602 v 0.002 0.002 l -0.002,0.002 v 0.002 l 0.002,0.002 v 0.002 0.002 l 0.002,0.002 0.002,0.002 0.002,0.002 c 0.0385,0.04 0.25241,0.0685 0.64648,0.084 3.11837,0.12008 6.24091,-0.0743 9.32032,-0.58008 6.82172,-0.99848 13.40714,-3.22031 19.43945,-6.55859 9.39039,-5.20072 17.26258,-12.75988 22.83984,-21.93164 4.14405,-6.79589 6.91613,-14.33803 8.15955,-22.20004 1.24,-8 0.68101,-15.84016 0.79101,-23.66016 0,-15.69 -0.0501,-31.43961 -0.0801,-47.09961 0,-20.1 -0.0909,-42.88929 -0.13086,-59.77929 l -0.72852,-157.88086 c 0,-12.34 -0.10039,-24.65016 -0.15039,-36.41016 0.07,-8.69 -9.4e-4,-17.58078 -3.21094,-26.300779 C 441.2187,87.357721 435.66225,78.806777 428.2793,72 c 0.585,0.430312 0.94891,0.623485 1.04101,0.578125 0.002,-0.0014 0.008,-0.006 0.01,-0.0078 0.15539,-0.180083 -1.38164,-1.860939 -5.29102,-5.109374 C 420.04921,64.309333 415.66598,61.690335 411,59.669922 403.32795,56.427063 395.06892,54.803318 386.74023,54.900391 h -42.79101 v -0.25 c 0,-0.08 10e-4,-0.160235 -0.0586,-0.240235 h 41.18946 c 6.66407,-0.13043 13.30844,0.766818 19.69922,2.660156 9.63425,2.899183 18.42224,8.090351 25.61132,15.128907 7.14337,7.122619 12.46949,15.858363 15.5293,25.470703 -0.39,-1.72 0.1993,-0.649453 -1.4707,-5.689453 -5.88521,-15.013624 -17.29105,-27.20701 -31.87891,-34.080078 5.7912,2.43939 11.18436,5.732431 16,9.769531 3.00501,2.540937 5.76992,5.352915 8.25977,8.40039 4.06,5.25 7.12984,9.918829 10.58984,20.298829 0.88,3 3.00008,10.999999 2.83008,17.499999 0.07,31.44 0.37031,86.78031 0.82031,101.32031 0.11,4 0.28883,10.65039 0.29883,16.90039 v 86.8711 c 0,52.12 0.64109,91.5089 1.37109,77.8789 0.0568,-1.06486 0.12596,-1.61196 0.19532,-1.69726 l 0.002,-0.002 0.002,-0.002 c 0.2339,-0.13463 0.52657,4.83731 0.80078,12.43164 l 0.42969,17.62891 c 0,6.59 0.46094,13.19 -0.28906,21 -1.39038,11.66044 -5.83366,22.74738 -12.88096,32.14071 -4.2908,5.79356 -9.4398,10.89909 -15.26953,15.14063 -3.13304,2.24804 -6.43298,4.25386 -9.87109,6 -2.23001,1.27 -3.57915,1.78875 -4.36915,2.21875 -0.0858,0.045 -0.13316,0.0791 -0.14648,0.0977 l -0.002,0.002 v 0.002 0.002 0.002 0.002 0.002 l 0.002,0.002 0.002,0.002 h 0.002 c 0.13981,0.0585 2.13799,-0.55841 2.2832,-0.50781 l 0.002,0.002 h 0.002 l 0.002,0.002 v 0.002 0.002 c -6e-5,3.8e-4 -0.001,0.005 -0.002,0.006 l -0.002,0.002 c -0.053,0.0737 -0.68586,0.35711 -2.44336,1.04883 -4.10427,1.63869 -8.35257,2.8906 -12.68959,3.73944 -0.86133,0.18518 -1.30378,0.30906 -1.35938,0.36718 v 0.002 l -0.002,0.002 v 0.002 0.002 0.002 l 0.002,0.002 v 0.002 h 0.002 v 0.002 h 0.002 c 0.0626,0.0482 0.64922,0.0148 1.69531,-0.0918 10.20574,-1.37206 19.94147,-5.14159 28.41016,-11 -6.91971,5.03616 -14.72058,8.73323 -23,10.90039 6.96728,-1.58838 13.63289,-4.28971 19.74023,-8 6.48691,-3.82903 12.29253,-8.70929 17.17969,-14.4414 6.04617,-7.10687 10.63048,-15.337 13.49024,-24.21876 3,-9 3.24961,-18.37101 3.34961,-22.79101 0.48,-38 0.39968,-84.38 0.42968,-128 -0.06,-27.94 -0.12945,-56.43945 -0.18945,-87.68945 0.71,3.36 1.54969,36.34047 1.67969,-45.26954 l 0.79101,7.88868 c 0.06,-14.45 0.10993,-29.35 0.16992,-43 0,-6.82 0.0598,-13.31883 0.0899,-19.29883 0.02,-5.4 0.0194,-12.82016 -1.06055,-18.41016 C 457.25095,86.716568 449.0549,71.772132 436.69922,60.730469 424.66919,49.745597 409.25659,43.185563 393,42.130859 L 387.53906,41.910156 383.69922,42 377.5,42.169922 366.58008,42.570312 369.00977,42.75 341.08984,42.609375 c -2.41787,-4.732126 -5.79257,-8.910268 -9.91015,-12.269531 1.16,0.55 2.08,1.060078 3,1.580078 -4.41847,-4.300869 -9.72595,-7.580965 -15.54883,-9.609375 -2.6321,-0.905133 -5.34509,-1.555255 -8.10156,-1.941406 -2.37,-0.34 -5.38008,-0.438282 -6.33008,-0.488282 -5.7,-0.27 -11.44985,-0.300234 -17.08984,-0.240234 -4.49689,-7.325312 -11.56423,-12.7100796 -19.82032,-15.1015625 0.35,-0.28 1.81117,-0.1998437 1.70117,-0.5898437 -0.11,-0.3900001 -1.75992,-1.6286719 -8.16992,-2.6386719 l 1.36914,-0.65039065 c -2.79051,-0.48638654 -5.62098,-0.70612696 -8.45312,-0.65625 z M 248.43945,21.890625 c -1.76747,0.864806 -3.44271,1.906592 -5,3.109375 -1.80369,1.390448 -3.22722,3.213695 -4.13867,5.300781 -1.57231,3.08834 -2.29046,6.540847 -2.08008,10 0.20715,0.41418 0.45097,0.808984 0.72852,1.179688 0.13,0.14 0.29062,-0.05086 0.39062,-0.38086 0.23,-1.01 0.70032,-2.769687 1.07032,-2.929687 0.8,-0.35 0.91023,-2.789766 1.74023,-4.259766 0.50665,-0.799738 0.83075,-1.701346 0.94922,-2.640625 0.0642,-0.952255 0.34114,-1.877983 0.81055,-2.708984 0.4628,-0.731928 1.05595,-1.372743 1.75,-1.890625 2.55,-1.51 5.01961,-3.029844 7.34961,-3.589844 -0.62,-0.22 -1.25883,-0.47914 -1.79883,-0.61914 z m -37.16992,11.490234 h 5.05078 v 0.21875 l -7.56054,-0.03906 c -0.12,0 -0.1693,-0.07133 -0.2793,-0.111328 z m -18.00976,3.439453 c -3.85092,2.269861 -7.13918,5.38052 -9.61915,9.09961 v 0.0293 c -2.07454,2.939706 -3.60222,6.229274 -4.50976,9.710934 0.35701,-1.585152 0.82763,-3.14256 1.4082,-4.660156 -1.06589,2.429822 -1.77947,4.999359 -2.11914,7.630859 0.4649,-5.345258 2.49629,-10.434605 5.83985,-14.630859 2.42042,-3.041072 5.49713,-5.495499 9,-7.179688 z m 74.7207,5.689454 c -0.4812,0.03037 -1.16058,0.799492 -1.81055,1.880859 -1.38,1.87 -2.90031,3.91 -5.07031,5 -0.58,0.24 -1.15,0.528516 -1.75,0.728516 -0.0389,0.08721 -0.0853,0.170862 -0.13867,0.25 2.32838,-0.01076 4.59855,-0.728658 6.50976,-2.058594 0.0871,-0.123636 0.15734,-0.258274 0.20899,-0.400391 0.0417,0.211136 0.0652,0.425465 0.0703,0.640625 0.94843,-0.985905 1.74372,-2.108401 2.35938,-3.330078 0.16401,-0.450794 0.26522,-0.922009 0.30078,-1.400391 h -0.0293 c -0.0447,-0.909998 -0.2729,-1.298049 -0.60352,-1.310546 -0.0151,-5.71e-4 -0.0313,-9.8e-4 -0.0469,0 z m -23.91406,0.992187 c -0.70506,0.01777 -0.84702,2.608359 0.82421,4.787109 1.98889,2.660581 4.824,4.565115 8.03907,5.400391 1.35,0.38 2.12945,0.34 2.43945,0 0.68273,-0.658069 1.24173,-1.433395 1.65039,-2.289062 0.06,-0.13 -0.36875,-0.330391 -0.71875,-0.400391 -1.81682,-0.231542 -3.60161,-0.667911 -5.32031,-1.300781 -1.21,-0.71 -1.51086,-0.679218 -1.13086,0.05078 0.12,0.21 -0.14047,0.289687 -0.23047,0.429688 -0.46755,-0.27278 -0.89483,-0.609346 -1.26953,-1 -0.2898,-0.465984 -0.50219,-0.975846 -0.62891,-1.509766 -1.19775,-0.962645 -2.19396,-2.151991 -2.93164,-3.5 -0.0973,-0.192282 -0.229,-0.365069 -0.38867,-0.509766 -0.12,-0.11125 -0.23326,-0.160743 -0.33398,-0.158202 z m -14.27735,1.640625 c 0.50156,1.58788 1.11709,3.13748 1.8418,4.636719 l 0.01,-0.01953 c 0.47831,1.236749 1.01871,2.448576 1.61915,3.630859 -0.57194,-0.863906 -1.09617,-1.758473 -1.57032,-2.679687 v 0.109374 c 0.56967,1.267482 1.23841,2.488063 2,3.650391 -2.17945,-2.664003 -3.53489,-5.905655 -3.90039,-9.328125 z m -32.64844,6.017578 c -0.0165,-10e-4 -0.0339,7.29e-4 -0.0527,0.002 -0.38665,0.02518 -1.25641,0.529219 -2.34766,1.558594 -1.16091,1.141616 -2.08543,2.500852 -2.7207,4 -0.41255,0.900371 -0.70162,1.852333 -0.85937,2.830078 -0.12063,0.507845 -0.1874,1.026987 -0.19922,1.548828 -0.0621,0.694779 -0.0855,1.392465 -0.0703,2.089844 -0.05,8.23 -0.0508,16.5 -0.0508,24.75 v 6.179688 c -0.0237,1.298994 0.0664,2.597569 0.26951,3.880812 0.4437,2.3426 1.41116,4.55462 2.83007,6.4707 2.44,3.23 4.63141,4.04852 5.44141,4.22852 1.78109,0.26878 3.60172,0.0515 5.26953,-0.62891 0.004,-0.001 0.009,-0.004 0.0117,-0.006 0.001,-7.3e-4 0.003,-0.001 0.004,-0.002 l 0.002,-0.002 c 3.4e-4,-4e-4 0.003,-0.005 0.004,-0.006 h 0.002 v -0.002 l 0.002,-0.002 v -0.002 -0.002 -0.002 -0.002 h -0.002 v -0.002 c -1.9e-4,-5e-4 -0.002,-0.005 -0.002,-0.006 -0.075,-0.12584 -1.0618,-0.47899 -1.88282,-0.81446 -4.64,-2.07 -9.10984,-6.63 -8.83984,-12.999997 -0.006,-5.563594 -0.0823,-8.176503 -0.23633,-8.378906 -9.9e-4,-0.0011 -0.005,-0.005 -0.006,-0.0059 -0.002,-0.0011 -0.007,-0.0045 -0.01,-0.0059 -0.001,-1.15e-4 -0.005,-8.1e-5 -0.006,0 -0.001,2.77e-4 -0.005,0.0015 -0.006,0.002 -0.0946,0.06013 -0.21758,0.910938 -0.36524,2.447266 -0.12593,1.269062 -0.32118,0.310935 -0.47851,0.25 -0.004,-0.0011 -0.008,0 -0.0117,0 0,-3.19 -0.09,-7.409453 0,-9.189453 0.19,-3.86 0.46062,-6.459688 0.64062,-8.929688 l -0.16992,-6.939453 v -2.419922 c 0.006,-0.5485 0.042,-1.096249 0.10938,-1.640625 0.34901,-2.170006 1.19455,-4.230067 2.4707,-6.019531 l 1.10937,-1.441406 c 0.38145,-0.504492 0.3976,-0.773724 0.15039,-0.789063 z m -56.16015,3.529297 h 24.25 v 0.210938 l -33.15039,-0.05078 c -0.33537,-0.0079 -0.66967,-0.04116 -1,-0.09961 z M 283,64.470703 l -0.11914,0.449219 c -0.74,0.79 -1.57109,1.479453 -2.37109,2.189453 -1.31219,1.222644 -2.70533,2.355421 -4.16993,3.390625 -2.50238,1.712578 -5.22328,3.081569 -8.08984,4.070312 -0.85723,0.272822 -1.75081,0.414398 -2.65039,0.419922 l 0.88086,-0.429687 C 272.79854,72.754053 278.50795,69.266846 283,64.470703 Z M 81.189453,73 c -10.98649,11.303609 -17.113455,26.457684 -17.070312,42.2207 0,6.73 -0.0782,17.86977 -0.158203,37.25977 -0.09,-17.09 -0.120391,-23.00008 -0.150391,-28.83008 v 0.88867 38.66016 c -0.08,-9.46 -0.150703,-19.00016 -0.220703,-28.16016 0.1,-9.24 -0.460391,-17.99953 0.349609,-26.51953 0.896467,-7.66291 3.25274,-15.083119 6.941406,-21.859374 C 73.690038,81.665818 77.157225,77.071369 81.189453,73 Z m -0.271484,23.583984 -0.002,0.002 c -0.07408,0.03069 -0.283204,0.386953 -0.626954,1.033203 -1.969522,4.140813 -3.261971,8.570783 -3.828077,13.121043 L 76.099609,116.2793 76,123.74023 c -0.05,5.21 -0.109922,10.84883 -0.169922,16.79883 -0.05,11.91 -0.100395,25.03102 -0.15039,38.29102 -0.06,58.47 -0.129454,117.41992 -0.189454,175.41992 -0.05,24.34 0.03008,37.4307 0.330078,42.7207 0.71,12.29 1.418907,23.64863 2.128907,32.88868 0.12,1.52999 0.31039,-7.42993 0.40039,-15.16993 0.48,-38.67 0.160157,-83.54992 0.160157,-125.66992 0,-20.37027 -0.07573,-29.59488 -0.228516,-29.77539 l -0.002,-0.002 h -0.002 -0.002 c -0.08896,0.089 -0.205547,3.11976 -0.345703,8.69726 -0.0391,1.65293 -0.08865,2.23832 -0.142579,2.30664 l -0.002,0.002 -0.002,0.002 -0.002,0.002 h -0.002 -0.002 -0.002 -0.002 l -0.002,-0.002 h -0.002 l -0.002,-0.002 -0.002,-0.002 c -0.0873,-0.10713 -0.185769,-1.30934 -0.271484,-1.41015 l -0.002,-0.002 -0.002,-0.002 h -0.002 l -0.002,-0.002 h -0.002 -0.002 -0.0039 V 236.2207 c 0.26,-13.71 0.439609,-22.94093 0.599609,-31.71093 -0.11,-16.59 -0.210312,-32.79883 -0.320313,-48.79883 -0.05333,-7.98667 -0.106822,-15.93008 -0.160156,-23.83008 l -0.08008,-11.82031 c -0.09412,-3.40698 0.01284,-6.81655 0.320313,-10.21094 0.380096,-3.2662 1.07673,-6.48772 2.080078,-9.61914 0.727891,-2.35813 1.075529,-3.505298 1.019531,-3.634767 v -0.002 l -0.002,-0.002 -0.002,-0.002 v -0.002 h -0.002 l -0.002,-0.002 h -0.002 l -0.002,-0.002 h -0.002 -0.002 -0.002 z M 218.39062,107.38086 217,107.57031 l 39.32031,1.91992 2.41016,-0.0996 -2.41016,0.46876 21.46875,0.24023 c 2.37,0.02 5.70172,-0.0797 7.51172,-0.17969 11.29,-0.63 6.29945,-1.69992 -7.81055,-2.16992 -15,-0.5 -31.07984,-0.25914 -46.58984,-0.36914 z m -1.52148,25.46875 37.5,0.33008 -0.7793,0.21093 -6.14062,-0.10156 -10.21875,0.0801 h -17.17969 c -1.94,0 -3.38,-0.24867 -5,-0.38867 z m 121.15039,75.29101 -0.33008,0.13868 9.25,1.45117 0.57032,-0.0801 L 346.93945,210 c 1.79,0 3.39985,0.10969 5.08985,0.17969 0.59305,0.006 1.1856,-0.0368 1.77148,-0.12891 2.65,-0.47 1.48016,-1.28086 -1.83984,-1.63086 -3.57,-0.38 -7.35,-0.18929 -11,-0.2793 z m -8.86719,0.0547 v 0.002 c -1.3879,-0.0219 -2.77615,0.005 -4.16211,0.082 -2.15,0.01 -2.40039,0.1607 -1.40039,0.4707 0.31,0.1 0.0606,0.24914 0.0606,0.36914 l -0.0312,-0.01 c -0.74,0 -1.73867,0.05 -2.13867,0 -0.70746,-0.12415 -1.40822,-0.28386 -2.09961,-0.47852 l -6.37109,0.51953 c -0.28051,0.0131 -0.5588,0.0563 -0.83008,0.12891 -1.38,0.56 1.99,1.28125 5.5,1.28125 3.87,-0.01 7.78109,0.0604 11.62109,0.15039 0.9516,0.13254 1.92103,0.0395 2.83008,-0.27149 0.76607,-0.51738 1.49447,-1.08848 2.17969,-1.70898 l 0.002,-0.002 0.002,-0.002 0.002,-0.002 v -0.002 l 0.002,-0.002 0.002,-0.002 v -0.002 l 0.002,-0.002 v -0.002 c 1.1e-4,-7.6e-4 -4e-5,-0.005 0,-0.006 v -0.002 -0.002 -0.004 c -0.0318,-0.0905 -0.5575,-0.21977 -1.01172,-0.29102 -1.38311,-0.12017 -2.77006,-0.19118 -4.15821,-0.21289 z m -28.99804,3.9336 c -0.70941,-0.0102 -1.415,0.10554 -2.08399,0.34179 -1.55815,0.67522 -3.25862,0.95628 -4.95117,0.81836 -2.56386,-0.21988 -5.1403,-0.25317 -7.70898,-0.0996 0.51,0.29 0.99992,0.55055 1.41992,0.81055 0.45,0.31 0.82,0.59008 1.25,0.83008 1.48,0 3.35969,-0.08 4.92969,0 1.88903,0.0534 3.77955,-0.0131 5.66015,-0.19922 2.8,-0.16 5.67078,-0.26039 8.80078,-0.40039 0.36514,-0.13935 0.71904,-0.3065 1.0586,-0.5 0.13,-0.1 -0.0284,-0.23055 -0.31836,-0.31055 -0.95394,-0.15683 -1.88921,-0.41143 -2.79102,-0.75976 -0.43,-0.56 -2.89058,-0.39047 -4.56054,-0.48047 -0.23382,-0.0308 -0.46926,-0.0477 -0.70508,-0.0508 z m 13.66601,4.04101 c -3.3,0.25 -7.00015,0.23063 -10.41015,0.39063 -4.32,0.19 -8.64993,0.35945 -12.66993,0.68945 -1.53,0.13 -3.72031,0.17992 -3.32031,0.66992 0.22,0.26 -0.34057,0.28094 -2.31054,0.21094 h -1.50977 -11.41992 c -0.57,0 -1.11969,-0.0906 -1.67969,-0.14063 l 0.24023,-0.0703 -11.29101,0.16992 c 0.4,0.4 -0.62945,0.62039 -2.18945,0.65039 -0.3245,0.4552 -0.68574,0.88306 -1.08008,1.2793 -0.62,0.55 0.64039,0.76063 3.90039,0.64063 2,-0.07 4.1407,-0.10063 6.2207,-0.14063 1.33,0 2.84,3.8e-4 4,-0.0996 3.32,-0.3 6.67899,-0.53984 10.45899,-0.58984 0.82,0 1.63015,-0.0691 2.41015,-0.11914 l 3.74024,-0.28125 c -0.34,0.59 0.41,0.7407 3,0.7207 1.33,0 2.65,-0.0608 4,-0.0508 4.3,0 8.60039,0.038 12.90039,0.11133 v 0.002 c 9.5e-4,0.0101 0.009,0.0529 0.0703,0.0879 h -0.66016 l -16.16015,0.18945 c -0.41,0 -0.85078,-0.12109 -1.30078,-0.12109 h -3.91016 c 0.11,0.15 8.6e-4,0.32117 0.38086,0.45117 0.9,0.35 2,0.68883 3,1.04883 -2,0.33 -2.00111,0.32 -3.37109,0 -0.36984,-0.0626 -0.74406,-0.0959 -1.11915,-0.0996 -2.25213,-0.0592 -4.50366,0.13866 -6.71093,0.58985 -0.35882,0.13598 -0.73612,0.21697 -1.11914,0.24023 h -5.75 c -3.45,0 -6.06016,0.51961 -5.16016,1.09961 0.62,0.4 -1.45094,1.24101 -3.21094,1.29101 -3.39,0.09 -4.10836,0.48914 -4.31836,0.86915 -0.08,0.13999 0.34,0.31992 0,0.41992 -1.61,0.44 -0.72,0.77 1,1 l -1.45117,0.35156 c 0.82,0.1 1.57047,0.2293 2.48047,0.2793 0.91,0.05 2.32086,-0.05 2.88086,0 2.81543,0.30225 5.64793,0.41578 8.47852,0.33984 1.85,0 3.74054,-0.10016 5.81054,-0.16016 -0.22,0.57 -2.41,1.23961 3,1.34961 l -0.51953,0.64063 c 1.91,0.11 3.94945,0.14031 5.18945,0.32031 1.73923,0.24204 3.49977,0.29247 5.25,0.15039 0.58842,-0.0754 1.15786,-0.25884 1.67969,-0.54101 l -0.16015,-0.15039 c 1.61,0.09 3.64976,0.10124 4.75976,0.28124 3.39337,0.46847 6.82935,0.54515 10.24024,0.22852 0.54,-0.05 1.3,-0.0586 2,-0.0586 h 10.27148 c 3,0 5.87984,-0.17118 8.83984,-0.20117 2.5,0 5.17,0.002 7.5,0.10156 3.63239,0.23024 7.27485,0.25631 10.91016,0.0781 0.35564,-0.0262 0.71272,-0.0262 1.06836,0 2.27,0.4 2.94086,-0.15828 4.38086,-0.23828 0.37521,-0.006 0.72461,-0.19232 0.93945,-0.5 0.12,-0.15 -0.32937,-0.31117 -0.10937,-0.45117 0.56,-0.34 2.23007,-0.7 1.83007,-1 -0.4,-0.3 0.53993,-0.52 1.41993,-0.75 l -2.69922,-0.25 c 2.78,-0.25 1.1,-0.99914 4.5,-1.11914 l -1.14063,-0.11133 2.75,-1.64844 -5.75976,0.0488 c 0,-0.22 0.4601,-0.49017 -0.0898,-0.66015 -1.45,-0.46002 -4.26101,-0.24922 -6.29101,-0.19922 -1.22682,0.0875 -2.45978,0.0206 -3.66992,-0.19922 -1.01728,-0.2226 -2.0594,-0.31059 -3.09961,-0.26172 -0.66,0 -1.33,9.7e-4 -2,-0.0488 v -0.11133 l 6,-0.17968 c -1.3,-0.08 -2.53953,-0.0801 -3.76954,-0.0801 h -9 c -2.33999,0 -5.36,-0.59 -4,-1 1,-0.33 2.54969,-0.60844 3.92969,-0.89844 h 1.2793 l -0.16992,0.25976 2.85937,-0.27148 -1.72851,-0.18945 c -0.06,-0.2 -0.1711,-0.34024 -0.1211,-0.49024 0.13,-0.4 -0.54875,-0.83992 1.53125,-1.16992 0.81345,-0.0691 1.61966,-0.20624 2.41016,-0.41015 0.29,-0.22 0.73,-0.20852 1.75,-0.22852 0.88191,0.003 1.76213,-0.0775 2.62891,-0.24024 0.43,-0.15998 0,-0.39062 0,-0.64062 l 0.77929,-0.0996 h -3.52929 l -0.26954,0.28906 c -1.61,-0.08 -3,-0.18922 -4.5,-0.19922 -1.5,-0.01 -3.0007,0.0689 -4.7207,0.12891 l 0.69141,-0.18945 -2.16016,-0.0898 c -0.22685,-0.25264 -0.50259,-0.45662 -0.81055,-0.59961 -0.52979,-0.13475 -1.07443,-0.20234 -1.62109,-0.20117 -3.15,0.17 -5.99984,-0.12914 -9.08984,-0.11914 z m -0.39062,3.67969 c 0.45,0 1.1807,0.0513 2.4707,0.11133 l -1.91016,0.11914 h 0.0605 2.5586 c -2.05939,0.3081 -4.15056,0.3416 -6.21876,0.0996 h 0.0391 c 1,-0.11 2,-0.25008 3,-0.33008 z m 24.31054,7.32027 8.82032,0.24024 -0.23047,0.19922 c -0.48,0 -0.99941,-0.0801 -1.43946,-0.0801 -0.8,0 -1.60039,5.8e-4 -2.40039,0.0605 -1.35,0 -2.72,0.06 -4,0 -0.40743,-0.0439 -0.80733,-0.14105 -1.18945,-0.28906 z m 0.31055,70.60938 -0.33008,0.14062 9.25,1.44922 0.56836,-0.0801 -0.53711,0.33203 c 1.76549,0.0598 3.35827,0.13991 5.0586,0.19922 0.59245,0.006 1.18434,-0.0382 1.76953,-0.13086 2.65,-0.47 1.48015,-1.2789 -1.83985,-1.6289 -3.57,-0.38 -7.35,-0.19125 -11,-0.28125 z m -8.89844,0.0879 c -1.3879,-0.0219 -2.77615,0.005 -4.16211,0.082 -2.15,0.01 -2.40039,0.1607 -1.40039,0.4707 0.31,0.1 0.0606,0.24914 0.0606,0.36914 l -0.0312,-0.0293 c -0.74,0 -1.73867,0.0495 -2.13867,0.0195 -0.70746,-0.12415 -1.40822,-0.28386 -2.09961,-0.47852 l -6.37109,0.51953 c -0.28051,0.0131 -0.5588,0.0563 -0.83008,0.12891 -1.38,0.56 1.99,1.28125 5.5,1.28125 3.87,-0.01 7.78109,0.0604 11.62109,0.15039 0.9516,0.13254 1.92103,0.0396 2.83008,-0.27148 0.76607,-0.51739 1.49447,-1.08848 2.17969,-1.70899 l 0.002,-0.002 0.002,-0.002 0.002,-0.002 v -0.002 h 0.002 v -0.002 l 0.002,-0.002 v -0.002 l 0.002,-0.002 v -0.002 c 1.1e-4,-7.6e-4 -4e-5,-0.005 0,-0.006 v -0.002 -0.002 -0.002 c -0.0318,-0.0905 -0.5575,-0.21976 -1.01172,-0.29101 -1.38311,-0.12017 -2.77006,-0.19118 -4.15821,-0.21289 z m 17.78711,1.75195 0.0312,0.0215 0.0293,-0.0195 c -0.0197,-6.6e-4 -0.0408,-9.5e-4 -0.0605,-0.002 z m -46.75586,2.20898 c -0.7094,-0.0102 -1.41499,0.10555 -2.08398,0.3418 -1.55739,0.67557 -3.25715,0.9573 -4.94922,0.82031 -2.56451,-0.21997 -5.14161,-0.25326 -7.71094,-0.0996 0.50427,0.28675 0.98943,0.54371 1.40625,0.80079 0.005,0.003 0.009,0.005 0.0137,0.008 0.43675,0.30959 0.80009,0.54645 1.25,0.83008 1.47998,0 3.35968,-0.08 4.92968,0 1.88903,0.0534 3.77955,-0.0131 5.66016,-0.19922 2.8,-0.16 5.67078,-0.26039 8.80078,-0.40039 0.3658,-0.13925 0.72036,-0.30641 1.06055,-0.5 0.13,-0.1 -0.0303,-0.23055 -0.32032,-0.31055 -0.95394,-0.15683 -1.8892,-0.41143 -2.79101,-0.75976 -0.43,-0.56001 -2.88858,-0.38852 -4.5586,-0.47852 -0.23443,-0.0315 -0.47052,-0.0491 -0.70703,-0.0527 z m 13.63672,4.01172 c -3.3,0.25 -7.00015,0.23063 -10.41015,0.39063 -4.32,0.19 -8.64993,0.35945 -12.66993,0.68945 -1.53,0.13 -3.72031,0.17992 -3.32031,0.66992 0.22,0.26 -0.34057,0.28094 -2.31054,0.21094 h -1.50977 -11.41992 c -0.57,0 -1.11969,-0.0906 -1.67969,-0.14062 l 0.24023,-0.0703 -11.29101,0.16993 c 0.4,0.4 -0.62945,0.62039 -2.18945,0.65039 -0.3245,0.4552 -0.68574,0.88306 -1.08008,1.27929 -0.62,0.55 0.64039,0.76063 3.90039,0.64063 2,-0.07 4.1407,-0.10063 6.2207,-0.14063 1.33,0 2.84,3.8e-4 4,-0.0996 3.32,-0.3 6.67899,-0.53984 10.45899,-0.58984 0.82,0 1.63015,-0.0691 2.41015,-0.11914 l 3.74024,-0.28125 c -0.34,0.59 0.41,0.7407 3,0.7207 1.33,0 2.65,-0.0608 4,-0.0508 4.3,0 8.60039,0.038 12.90039,0.11133 v 0.002 c 9.5e-4,0.0101 0.009,0.0529 0.0703,0.0879 H 306.2207 L 290,310.09961 c -0.41,0 -0.85078,-0.11914 -1.30078,-0.11914 h -3.91016 c 0.11,0.15 8.6e-4,0.31922 0.38086,0.44922 0.9,0.35 2,0.69078 3,1.05078 -2,0.33 -1.99914,0.32 -3.36914,0 -0.37048,-0.0627 -0.74535,-0.096 -1.12109,-0.0996 -2.25148,-0.0591 -4.50236,0.1388 -6.70899,0.58984 -0.35944,0.13617 -0.73741,0.21717 -1.12109,0.24024 h -5.75 c -3.45,0 -6.06016,0.51961 -5.16016,1.09961 0.62,0.4 -1.44898,1.23906 -3.20898,1.28906 -3.39,0.09 -4.11031,0.49109 -4.32031,0.87109 -0.08,0.14 0.34,0.31994 0,0.41992 -1.61,0.44 -0.72,0.77 1,1 l -1.44922,0.34961 c 0.82,0.1 1.56851,0.2293 2.47851,0.2793 0.91,0.05 2.32086,-0.05 2.88086,0 2.81608,0.30234 5.64923,0.41588 8.48047,0.33985 1.85,0 3.73856,-0.10016 5.8086,-0.16016 -0.22002,0.57 -2.41,1.24156 3,1.35156 l -0.51954,0.63867 c 1.91,0.11 3.94946,0.14032 5.18946,0.32032 1.73923,0.24204 3.49977,0.29247 5.25,0.15039 0.58909,-0.0752 1.15921,-0.25862 1.68164,-0.54102 l -0.16016,-0.14844 c 1.61,0.09 3.64977,0.0993 4.75977,0.2793 3.39329,0.46912 6.82927,0.54645 10.24023,0.23047 0.54,-0.05 1.3,-0.0606 2,-0.0606 h 10.26953 c 3,0 5.87985,-0.16922 8.83985,-0.19922 2.5,0 5.17,-3.8e-4 7.5,0.0996 3.63235,0.2309 7.2748,0.25765 10.91015,0.0801 0.35628,-0.0263 0.71403,-0.0263 1.07031,0 2.27,0.4 2.93891,-0.16023 4.37891,-0.24023 0.37591,-0.006 0.72616,-0.19176 0.94141,-0.5 0.12,-0.15 -0.33133,-0.30922 -0.11133,-0.44922 0.56,-0.34 2.23008,-0.7 1.83008,-1 -0.4,-0.3 0.53992,-0.52 1.41992,-0.75 l -2.69922,-0.25 c 2.78,-0.25 1.1,-1.0011 4.5,-1.1211 l -1.14062,-0.10937 2.75,-1.65039 -5.69922,0.10937 c 0,-0.22 0.4601,-0.49015 -0.0898,-0.66015 -1.45,-0.46 -4.26101,-0.24922 -6.29101,-0.19922 -1.22682,0.0875 -2.45978,0.0206 -3.66992,-0.19922 -1.01728,-0.2226 -2.0594,-0.31059 -3.09961,-0.26172 -0.66,0 -1.33,9.7e-4 -2,-0.0488 v -0.10937 l 6,-0.18164 c -1.3,-0.08 -2.53949,-0.0801 -3.76954,-0.0801 h -9 c -2.33999,0 -5.36,-0.59 -4,-1 1,-0.33 2.54969,-0.60844 3.92969,-0.89844 h 1.2793 l -0.16992,0.25977 2.85937,-0.27149 -1.72851,-0.18945 c -0.06,-0.2 -0.1711,-0.34024 -0.1211,-0.49023 0.13,-0.4 -0.54875,-0.83993 1.53125,-1.16993 0.81345,-0.0691 1.61966,-0.20624 2.41016,-0.41015 0.29,-0.22 0.73,-0.20852 1.75,-0.22852 0.88191,0.003 1.76213,-0.0775 2.62891,-0.24023 0.43,-0.16 0,-0.39063 0,-0.64063 l 0.77929,-0.0996 h -3.52929 l -0.26954,0.28907 c -1.61,-0.08 -3,-0.18922 -4.5,-0.19922 -1.5,-0.01 -3.0007,0.0689 -4.7207,0.1289 l 0.69141,-0.18945 -2.16016,-0.0898 c -0.22685,-0.25264 -0.50259,-0.45662 -0.81055,-0.59961 -0.52988,-0.13409 -1.07451,-0.20102 -1.62109,-0.19922 -3.15,0.17 -5.99984,-0.1311 -9.08984,-0.1211 z m -0.39062,3.67971 c 0.45,0 1.1807,0.0513 2.4707,0.11133 l -1.91016,0.11914 h 0.0605 2.5586 c -2.02511,0.29623 -4.0802,0.32709 -6.11329,0.0918 0.97771,-0.10882 1.95589,-0.24405 2.9336,-0.32227 z m 24.31054,7.32031 8.82032,0.24024 -0.23047,0.19922 c -0.48,0 -0.99943,-0.0801 -1.43946,-0.0801 -0.8,0 -1.60039,6e-4 -2.40039,0.0605 -1.35,0 -2.72,0.06 -4,0 -0.40743,-0.0439 -0.80733,-0.14105 -1.18945,-0.28907 z m 0.26954,70.57032 -0.33008,0.14062 9.25,1.44922 0.57031,-0.0801 -0.57031,0.34961 h 0.01 c 1.79,0.06 3.40008,0.13969 5.08008,0.17969 0.5924,0.006 1.18429,-0.0369 1.76953,-0.12891 2.65,-0.47 1.48016,-1.28086 -1.83984,-1.63086 -3.57,-0.38 -7.35,-0.18929 -11,-0.27929 z m -8.89649,0.0879 c -1.38855,-0.022 -2.77745,0.005 -4.16406,0.082 -2.15,0.01 -2.39844,0.1607 -1.39844,0.4707 0.30145,0.0972 0.0734,0.24114 0.0606,0.35938 -0.73904,4.2e-4 -1.73375,0.0498 -2.17188,0 -0.70749,-0.1248 -1.40825,-0.28516 -2.09961,-0.48047 l -6.36914,0.51953 c -0.28058,0.0137 -0.55887,0.0576 -0.83008,0.13086 -1.37999,0.56 1.99001,1.2793 5.5,1.2793 3.87001,-0.01 7.77915,0.0604 11.61915,0.15039 0.95144,0.13316 1.92087,0.0408 2.83007,-0.26954 0.76614,-0.51801 1.49453,-1.08976 2.17969,-1.71093 l 0.002,-0.002 0.002,-0.002 0.002,-0.002 0.002,-0.002 0.002,-0.002 0.002,-0.002 c 1.4e-4,-3.8e-4 10e-4,-0.005 0.002,-0.006 v -0.002 -0.002 -0.002 -0.002 -0.002 V 388 c -0.0318,-0.0905 -0.55945,-0.21781 -1.01367,-0.28906 -1.38246,-0.12013 -2.76875,-0.19113 -4.15625,-0.21289 z m -28.96875,3.96093 c -0.7094,-0.0102 -1.41499,0.10555 -2.08398,0.3418 -1.55815,0.67522 -3.25862,0.95628 -4.95117,0.81836 -2.56386,-0.21988 -5.14031,-0.25317 -7.70899,-0.0996 0.51,0.29 0.99992,0.55055 1.41992,0.81055 h 0.01 c 0.45,0.28 0.82023,0.56008 1.24023,0.83008 1.48,0 3.35969,-0.08 4.92969,0 1.88903,0.0534 3.77955,-0.0132 5.66016,-0.19922 2.8,-0.16 5.67078,-0.26039 8.80078,-0.40039 0.36513,-0.13935 0.71903,-0.3065 1.05859,-0.5 0.13,-0.1 -0.0303,-0.23055 -0.32031,-0.31055 -0.95328,-0.15697 -1.88788,-0.41156 -2.78906,-0.75977 -0.43,-0.56 -2.89055,-0.39046 -4.56055,-0.48046 -0.23382,-0.0308 -0.46926,-0.0477 -0.70508,-0.0508 z m 13.63477,4.01172 c -3.3,0.25 -7.00016,0.22864 -10.41016,0.38868 -4.32,0.18999 -8.64992,0.3614 -12.66992,0.6914 -1.53,0.13 -3.71836,0.17992 -3.31836,0.66992 0.22,0.26 -0.34055,0.27899 -2.31055,0.20899 h -1.50976 -11.38086 c -0.57,0 -1.11969,-0.0906 -1.67969,-0.14063 l 0.24023,-0.0684 -11.29101,0.16992 c 0.4,0.4 -0.62945,0.61844 -2.18945,0.64844 -0.32442,0.45587 -0.68565,0.88439 -1.08008,1.28125 -0.62,0.55 0.64039,0.76063 3.90039,0.64063 2,-0.07 4.1407,-0.10063 6.2207,-0.14063 1.33,0 2.84,3.8e-4 4,-0.0996 3.32,-0.3 6.67899,-0.53984 10.45899,-0.58984 0.82,0 1.63015,-0.0711 2.41015,-0.12109 l 3.74024,-0.2793 c -0.34,0.59 0.41,0.73875 3,0.71875 1.33,0 2.65,-0.0588 4,-0.0488 4.3,0 8.60039,0.036 12.90039,0.10938 v 0.002 c 9.5e-4,0.0101 0.009,0.0529 0.0703,0.0879 h -0.66016 l -16.16015,0.18945 c -0.41,0 -0.85078,-0.11914 -1.30078,-0.11914 h -3.91016 c 0.11,0.15 8.6e-4,0.31922 0.38086,0.44922 0.9,0.35 2,0.69078 3,1.05078 -2,0.33 -2.00109,0.32 -3.37109,0 -0.36984,-0.0626 -0.74406,-0.0959 -1.11915,-0.0996 -2.25213,-0.0592 -4.50366,0.13866 -6.71093,0.58985 -0.35882,0.13598 -0.73612,0.21697 -1.11914,0.24023 h -5.75 c -3.45,0 -6.06016,0.51961 -5.16016,1.09961 0.62,0.4 -1.45094,1.23906 -3.21094,1.28906 -3.39,0.09 -4.10836,0.4911 -4.31836,0.8711 -0.08,0.14 0.34,0.31992 0,0.41992 -1.61,0.44 -0.72,0.77 1,1 l -1.45117,0.34961 c 0.82,0.1 1.57047,0.23125 2.48047,0.28125 0.91,0.05 2.32086,-0.05 2.88086,0 2.81543,0.30225 5.64793,0.41578 8.47852,0.33984 1.85,0 3.74054,-0.10013 5.81054,-0.16016 -0.22,0.57 -2.41,1.23961 3,1.34961 l -0.51953,0.64063 c 1.91,0.11 3.94945,0.13836 5.18945,0.31836 1.73923,0.24204 3.49977,0.29247 5.25,0.15039 0.58829,-0.0748 1.15772,-0.25757 1.67969,-0.53906 l -0.16015,-0.15039 c 1.61,0.09 3.64976,0.0993 4.75976,0.27929 3.39329,0.46912 6.82928,0.54645 10.24024,0.23047 0.54,-0.05 1.29998,-0.0606 2,-0.0605 h 10.27148 c 3,0 5.87984,-0.16922 8.83984,-0.19922 2.5,0 5.17,-3.8e-4 7.5,0.0996 3.63235,0.2309 7.27481,0.25765 10.91016,0.0801 0.35564,-0.0262 0.71272,-0.0262 1.06836,0 2.27,0.4 2.94086,-0.16023 4.38086,-0.24023 0.37521,-0.006 0.72461,-0.19232 0.93945,-0.5 0.12,-0.15 -0.32937,-0.30922 -0.10937,-0.44922 0.56,-0.34 2.23007,-0.7 1.83007,-1 -0.4,-0.3 0.53993,-0.52 1.41993,-0.75 l -2.69922,-0.25 c 2.78,-0.25 1.1,-1.00109 4.5,-1.12109 l -1.14063,-0.10938 2.75,-1.65039 -5.80078,0.0508 c 0,-0.22 0.46012,-0.49015 -0.0898,-0.66015 -1.45,-0.46 -4.25902,-0.24922 -6.28907,-0.19922 -1.2269,0.0869 -2.45986,0.0193 -3.66992,-0.20117 -1.01801,-0.22212 -2.06079,-0.30945 -3.10156,-0.25977 -0.66,0 -1.33,-7.6e-4 -2,-0.0508 v -0.10938 l 6,-0.17968 c -1.3,-0.08 -2.53953,-0.0801 -3.76953,-0.0801 h -9 c -2.34,0 -5.36,-0.59 -4,-1 1,-0.33 2.54969,-0.61039 3.92969,-0.90039 h 1.28125 l -0.16993,0.25976 2.85938,-0.26953 -1.73047,-0.18945 c -0.06,-0.2 -0.16914,-0.34024 -0.11914,-0.49024 0.13,-0.4 -0.5507,-0.83992 1.5293,-1.16992 0.81344,-0.0691 1.61966,-0.20625 2.41015,-0.41015 0.29,-0.22 0.73,-0.21047 1.75,-0.23047 0.88257,0.003 1.76344,-0.0774 2.63086,-0.24024 0.43,-0.16 0,-0.38867 0,-0.63867 L 342,396.44922 h -3.5293 l -0.27148,0.29101 c -1.61,-0.08 -3,-0.19117 -4.5,-0.20117 -1.5,-0.01 -2.99875,0.0709 -4.71875,0.13086 l 0.68945,-0.18945 -2.16015,-0.0899 c -0.22666,-0.25334 -0.50242,-0.458 -0.81055,-0.60156 -0.52924,-0.13393 -1.07321,-0.20086 -1.61914,-0.19922 -3.15,0.17 -5.99985,-0.12914 -9.08985,-0.11914 z m -0.38868,3.67969 c 0.45,0 1.17872,0.0494 2.46876,0.10938 l -1.91016,0.12109 h 0.0605 2.56054 c -2.04657,0.30465 -4.12437,0.33814 -6.17969,0.0996 1,-0.11 2,-0.25008 3,-0.33008 z m 24.3086,7.32031 8.82031,0.24024 -0.23047,0.19922 c -0.48,0 -0.99945,-0.0801 -1.43945,-0.0801 -0.8,0 -1.60039,6.2e-4 -2.40039,0.0605 -1.35,0 -2.72,0.06 -4,0 -0.40752,-0.0445 -0.80742,-0.14233 -1.18945,-0.29101 z M 90,468.53906 c 5.846288,6.92998 13.60704,11.9813 22.31055,14.52149 4.43,1.43 8.52945,1.73945 13.68945,1.93945 l 17.41016,0.24023 69.80078,0.90039 8.56836,-0.0898 -8.5586,0.43945 76.26953,0.19922 26.64063,-0.16992 c 40.08,-0.56 22.34978,-1.56 -27.74024,-2 l -165.05078,-0.41996 c -11.46985,-0.27192 -22.40926,-4.88585 -30.609371,-12.91016 -1,-0.79 -1.800469,-1.78039 -2.730469,-2.65039 z m -23,9.20117 c 1.68,2.01 3.139922,4.16024 4.919922,5.99024 8.480911,9.83406 19.507489,17.14118 31.869138,21.11914 6.19791,1.89852 12.62225,2.95808 19.10156,3.15039 6,0.16 11.21915,0.0694 16.86915,0.10938 l 66.57031,0.15039 -2.7793,0.20117 -21.79101,-0.10156 -36.28907,0.0801 h -15.31054 c -2.69,0 -4.81,0.10038 -8,-0.0996 -2.99808,-0.0535 -5.98723,-0.34411 -8.93946,-0.86918 C 101.42985,505.57766 90.329685,500.66511 81,493.21094 75.567554,488.80252 70.845657,483.58459 67,477.74023 Z"
       clip-path="url(#clipPath96)" />
    <g
       id="g99"
       transform="translate(-506.15851,-16.806349)">
      <path
         id="path98"
         style="display:inline"
         class="cls-1"
         d="M 209.01953,196.5293 206.71094,200 c -0.18,-0.12 -0.2218,-0.55031 -0.5918,-0.32031 -1,0.62 -1.92875,2.45097 -2.71875,3.71093 -0.42579,0.79498 -0.9839,1.51162 -1.65039,2.11915 -0.59007,0.48775 -1.08815,1.07711 -1.4707,1.74023 l -0.84961,1.17969 -0.0996,-0.0606 2.28906,-3.75 c -0.6,0.75 -1.08961,1.5002 -1.59961,2.24024 l -3.66992,5.42968 c -1,1.4 -2.65897,2.93158 -2.45899,1.85156 0.22771,-0.97475 0.50807,-1.93644 0.83985,-2.88085 0.15693,-0.27024 0.33043,-0.53051 0.51953,-0.7793 l 0.15039,0.24023 0.93945,-1.89062 -0.84961,0.94922 c -0.19,-0.08 1.76407,0.1608 1.66407,0.0508 -0.28,-0.3 4.45539,-6.25508 5.02539,-7.70508 0.27565,-0.5376 -2.63448,1.39575 -2.48438,0.81055 -0.06,-0.3 -3.765,4.38953 -4.375,5.26953 -0.61,0.88 -2.01554,2.33945 -2.68554,3.43945 l 0.12108,-0.14448 -0.625,0.75977 c -0.28494,-0.006 -1.69296,0.6732 -1.95508,0.78515 -0.32132,0.24508 -0.7237,1.29293 -0.94531,1.63086 -1.14,2 -2.31125,2.09899 -3.53125,3.95899 -0.3,0.45 -1.27414,1.57437 -1.49414,1.98437 -0.55,1.06 -1.48914,2.06547 -2.11914,3.10547 l -1.58594,2.5957 c 0,0 -15.10432,9.29298 -5.68949,13.78903 l 9.125,-7.00977 0.375,-1.46484 1.0898,0.625 14.875,-16.41407 -24.23047,24.46485 c -8.08533,-3.89278 -25.05908,2.74782 -7.78906,10.21484 0.67529,0.28289 0.64705,0.3135 1.37891,0.33399 l 3.15429,0.5957 4.22656,1.91015 6.35352,-7.96484 c 3.08673,-3.76688 5.85967,-7.7803 8.29102,-12 0.39,-0.68 0.99929,-1.60062 1.52929,-2.39062 l 4.5,-6.72071 3.41993,-5.47851 c 1,-1.53 2.07109,-3.16 3.12109,-4.5 1.65975,-2.07542 3.15764,-4.27525 4.48047,-6.58008 0.12661,-0.22886 0.2772,-0.44361 0.44922,-0.64063 1.25,-1.16 1.06007,-1.87906 1.58007,-2.78906 0.15244,-0.26339 0.15244,-0.58817 0,-0.85156 -0.07,-0.16 -0.38992,3.1e-4 -0.41992,-0.17969 -0.06,-0.52 0.31968,-1.74017 -0.0703,-1.66015 -0.39,0.08 -0.22,-0.6193 0,-1.2793 l -1.31055,1.5 c 0.92,-1.83 -0.35937,-1.19961 0.89063,-3.34961 l -0.55078,0.62891 z m -2.35937,8.99023 0.0605,0.20117 c -0.22,0.28 -0.46039,0.54008 -0.65039,0.83008 l -0.91992,1.48828 -1.61133,2.47071 c -0.20874,0.22741 -0.4552,0.41704 -0.72851,0.56054 l 0.0801,-0.33008 z m -9.43946,12.95509 c -0.57801,1.41478 -15.40859,20.83761 -16.45117,21.95508 L 191.25,225.38086 c 0.33782,-0.4992 -0.1734,-4.23033 0.21484,-4.69141 -4.69756,5.88968 -10.38175,12.26757 -9.66992,15.48047 l 10.8008,-12.375 z"
         clip-path="url(#clipPath96)"
         transform="matrix(-0.98926851,-0.14451715,-0.02386982,0.88681465,869.23635,65.49512)" />
      <path
         id="path99"
         style="display:inline"
         class="cls-1"
         d="M 209.01953,196.5293 206.71094,200 c -0.18,-0.12 -0.2218,-0.55031 -0.5918,-0.32031 -1,0.62 -1.92875,2.45097 -2.71875,3.71093 -0.42579,0.79498 -0.9839,1.51162 -1.65039,2.11915 -0.59007,0.48775 -1.08815,1.07711 -1.4707,1.74023 l -0.84961,1.17969 -0.0996,-0.0606 2.28906,-3.75 c -0.6,0.75 -1.08961,1.5002 -1.59961,2.24024 l -3.66992,5.42968 c -1,1.4 -2.65897,2.93158 -2.45899,1.85156 0.22771,-0.97475 0.50807,-1.93644 0.83985,-2.88085 0.15693,-0.27024 0.33043,-0.53051 0.51953,-0.7793 l 0.15039,0.24023 0.29827,-0.54157 0.26674,-0.41409 c -0.19,-0.08 0.54094,-0.68293 0.44094,-0.79295 -0.28,-0.3 0.30591,0.20557 0.87591,-1.24443 0.27565,-0.5376 0.23928,-0.0914 0.38938,-0.67656 -0.06,-0.3 0.67417,-0.83413 1.07417,-1.46413 0.36352,-0.5363 0.97427,-0.79647 1.18907,-1.40772 0,-0.34998 0.71674,-0.48719 0.48674,-0.59719 l -0.94221,-0.001 -1.70253,1.63382 -1.60996,1.5099 c -0.71,0.93 -1.09537,1.11202 -1.70539,1.99202 -0.61,0.88 -0.1798,0.0838 -0.8498,1.18376 l -0.10726,-0.0784 -2.71944,4.05766 c -0.28494,-0.006 2.9952,-2.43222 2.73308,-2.32027 -0.32132,0.24508 -2.64077,2.09093 -2.86238,2.42886 -1.14,2 -0.6976,1.43792 -1.9176,3.29792 -0.3,0.45 -1.51093,2.51857 -1.73093,2.92857 -0.55,1.06 -4.16626,1.09493 -4.79626,2.13493 l -1.46094,2.4707 c 0,0 -15.35432,10.79298 -5.93949,15.28903 l 6.375,-10.00977 3.375,-4.33984 h 0.0898 l 2,-2.53907 -10.73047,16.46485 c -8.08533,-3.89278 -24.93408,3.37282 -7.66406,10.83984 0.67529,0.28289 7.77205,-5.8115 8.50391,-5.79101 l -5.97071,7.2207 6.22656,1.41015 6.35352,-7.96484 c 3.08673,-3.76688 5.85967,-7.7803 8.29102,-12 0.39,-0.68 0.99929,-1.60062 1.52929,-2.39062 l 4.5,-6.72071 3.41993,-5.47851 c 1,-1.53 2.07109,-3.16 3.12109,-4.5 1.65975,-2.07542 3.15764,-4.27525 4.48047,-6.58008 0.12661,-0.22886 0.2772,-0.44361 0.44922,-0.64063 1.25,-1.16 1.06007,-1.87906 1.58007,-2.78906 0.15244,-0.26339 0.15244,-0.58817 0,-0.85156 -0.07,-0.16 -0.38992,3.1e-4 -0.41992,-0.17969 -0.06,-0.52 0.31968,-1.74017 -0.0703,-1.66015 -0.39,0.08 -0.22,-0.6193 0,-1.2793 l -1.31055,1.5 c 0.92,-1.83 -0.35937,-1.19961 0.89063,-3.34961 l -0.55078,0.62891 z m -2.35937,8.99023 0.0605,0.20117 c -0.22,0.28 -0.46039,0.54008 -0.65039,0.83008 l -0.91992,1.48828 -1.61133,2.47071 c -0.20874,0.22741 -0.4552,0.41704 -0.72851,0.56054 l 0.0801,-0.33008 z m -18.18946,14.08009 c -0.57801,1.41478 -1.40859,2.71261 -2.45117,3.83008 L 187,221.38086 c 0.33782,-0.4992 0.7016,-0.98033 1.08984,-1.44141 l -0.66992,1.23047 h 0.0508 z"
         clip-path="url(#clipPath96)"
         transform="matrix(0.9372879,0.03580228,-0.07210214,1.049162,517.10718,-6.3941201)" />
    </g>
    <use
       x="0"
       y="0"
       xlink:href="#g99"
       id="use99"
       transform="translate(1.1715729,89.338095)" />
    <use
       x="0"
       y="0"
       xlink:href="#g99"
       id="use100"
       transform="translate(4.0857864,178.10512)" />
  </g>
</svg>
