<svg id="Layer_1" data-name="Layer 1" xmlns="http://www.w3.org/2000/svg" viewBox="0 0 512 512"><defs><style>.cls-1{fill:#707070;}</style></defs><title>checklist-handdrawn</title><path class="cls-1" d="M459.92,103.07a72.43,72.43,0,0,0-23.22-42.34A71.69,71.69,0,0,0,393,42.13l-5.46-.22L383.7,42l-6.2.17-10.92.4,2.43.18-27.92-.14a38.36,38.36,0,0,0-9.91-12.27c1.16.55,2.08,1.06,3,1.58a42.19,42.19,0,0,0-15.55-9.61,43.45,43.45,0,0,0-8.1-1.94c-2.37-.34-5.38-.44-6.33-.49-5.7-.27-11.45-.3-17.09-.24A34.53,34.53,0,0,0,267.29,4.54c.35-.28,1.81-.2,1.7-.59s-1.76-1.63-8.17-2.64l1.37-.65A44.65,44.65,0,0,0,249.5.28a29.59,29.59,0,0,0-12.37,3.93A14.58,14.58,0,0,0,234,6.94l.44,0a49.68,49.68,0,0,0-8.89,7.36,33.76,33.76,0,0,0-4.3,5.45c-3.27,0-6.49.1-9.49.19l-4,.06h-1.1l-1.69.07c-1.13.08-2.25.08-3.31.25a41.56,41.56,0,0,0-31.86,21.65c-9.36,0-18.56.09-27.24.16l-14.12.06h-3.9l-4.81.23a75.46,75.46,0,0,0-9.38,1.18A73.7,73.7,0,0,0,69.74,66.88a72.2,72.2,0,0,0-18.39,43.06l-.27,5.89v33.93q0,19.37,0,38.7c.08,44.65.16,88.78.24,133.44,0,37.72-.09,78.07-.13,113.3a103.56,103.56,0,0,0,.53,12c.32,2.1.59,4.21,1,6.29l1.57,6.16a74.27,74.27,0,0,0,11.33,22.45,72.91,72.91,0,0,0,40.86,27.52,67,67,0,0,0,12.4,2.06l6.16.28h5.12l20.52,0,41.51-.13,16.13,0c34.24.5,44.43-.2,66.15-.3a130.15,130.15,0,0,0,14.23-.62c1.86-.18-5-.39-1.63-.56,8.38-.42,33.75-.87,27.68-1.22-7.77-.45,8.09-.65,21.49-.93l-40.76-.32c42-.31,16.53-1.2,67.87-1.4l-17.23-.14,41.45-2H301.37c0-.27,6.9-.61-1.33-.82-21.91-.58-64.28-.31-95-.25-25.48,0-44.1,0-55.44-.25L129,502.7a97.7,97.7,0,0,1-12.83-.65,52.81,52.81,0,0,1-7.11-1.37,48.41,48.41,0,0,1-7.37-2.32,64.27,64.27,0,0,1-26.09-18.59l.06-.14a63.94,63.94,0,0,0,41.86,22.29c8.31.7,15.46.25,23.14.35l22.69-.05-28.86-.09c-4.79-.06-9.23.14-14.35-.23a66.17,66.17,0,0,1-14.62-2.7c-23.2-7.08-41.28-28.45-44.12-52.62a80.31,80.31,0,0,1-.59-9V412.18q0-16.91,0-33.68c.06-35.35.73-81,1.27-60,.3,15.7.72,38.45,1.12,59.27,0,2.68,0,12.73,0,19.38l-.32-2.51.33,43.22c.14-15.54.21-24.16.23-26.12.25-.84.43-2.55.61-1.86.5,2,1-8.36,1.45,23.06-.1,6.44.34,14.58,2.48,21.26a53.15,53.15,0,0,0,5.75,13.05c1.23,1.8,2.64,4.08,5.17,7.21A58.67,58.67,0,0,0,91.16,486,57.54,57.54,0,0,0,111.71,495a65.83,65.83,0,0,0,15.9,1.28c6.56-.2.63-.48-.07-.8l11.81-.12-15.85-.07a55.34,55.34,0,0,1-12.91-1.77,56.62,56.62,0,0,1-20.19-9.73,29.43,29.43,0,0,1-3.31-2.19,57.28,57.28,0,0,1-17.51-27.73,59.76,59.76,0,0,1-2.14-15.68c0-5.5,0-11,0-16.49,0-22.16-.1-44.73-.16-71.28l.24,10.36c0-12.78.08-23.54.12-32.6.27-4.1.53-5.53.75-12.22.12-3.51.27-18.31.25-24.46.05-47.55.1-91.31.15-137.21,0-11.2,0-23.74,0-33.34a72.46,72.46,0,0,1,1.37-17.91,53,53,0,0,1,6.78-16.64,55.71,55.71,0,0,1,27.91-23.21,53,53,0,0,1,18.23-3.62c6.46-.17,13.26-.07,19.85-.12l21.75-.06c0,.07,0,.14,0,.21l-.09,2.09v.38l-43,.21c-3.33,0-10.25,1.72-13.84,3.25-1.65.81.33,0,4.14-.79a30.07,30.07,0,0,1,4.83-.84,33,33,0,0,1,5.49-.41c3.68-.17,8.71.09,12.78.11,8.44.16,15.56.31,17.14.48,1.89.2,6.4.32,12.42.4v1.4c0,6.29.09,12.54.13,18.79l.08,9.38c0,.61,0,1.93.11,3.12a27.41,27.41,0,0,0,.36,3.57,42.34,42.34,0,0,0,37.39,35.92l4.3.25,2.91,0,5.79.08,11.52.09,23.23-.15c1.37,0,3.71,0,4.54,0,9.64.53,12.51-.21,18.63-.32a10.24,10.24,0,0,0,4-.67c.52-.19-1.41-.42-.46-.6,2.36-.45,9.51-.93,7.8-1.31-2.19-.48,2.28-.7,6.05-1l-11.48-.34c11.83-.33,4.66-1.29,19.12-1.5l-4.85-.15,11.67-2.19H281.15c0-.29,1.94-.65-.38-.88-6.17-.62-18.1-.33-26.77-.27-7.18.05-12.42,0-15.62-.26-3.47-.3-7.61-.35-13.19-.34l-8.49-.07,0-.15,25.57-.24-16-.11H207.08a31.7,31.7,0,0,1-20.25-7.08,29.22,29.22,0,0,1-9.2-13.41c-1.21-4.07-1.08-6-.07-2.94a31.49,31.49,0,0,0,10.7,14.21,41.13,41.13,0,0,0,4.81,3.19,6,6,0,0,1-.82-.07,27.89,27.89,0,0,0,12.41,3.35,27.09,27.09,0,0,1-7.52-1.8c-.15-.34-.54-.69-.29-.8s-.1-.62.41-.72,1.94.38,6.22.76a77.79,77.79,0,0,0,10.13-.34c1.25-.29,3.1-.28,7.44-.31,4,0,9.7-.15,11.17-.32,1.85-.21.18-.52,0-.86l3.33-.13-15-.06-1.17.39c-6.75-.3-13.24.26-18.37-1a24.9,24.9,0,0,1-14.6-9.81,24.7,24.7,0,0,0,1.81,1.9,24.86,24.86,0,0,1-4.1-7c0-1.07,0-1.46-.16-3.09a42.75,42.75,0,0,1-.5-5.82c-.11-6.7-.07-13.13,0-19.5l.11-9.54a43.18,43.18,0,0,1,.56-8.65A24.31,24.31,0,0,1,187,49.94a23,23,0,0,1,14.52-10.76,24.79,24.79,0,0,1,4.74-.61l5.56-.07,4,0a34.65,34.65,0,0,0,0,3.47,39.74,39.74,0,0,0,8.79,23.32,40.11,40.11,0,0,0,17.58,12.3,43.25,43.25,0,0,0,18.09,2.37,37.18,37.18,0,0,0,23.88-11.21l1.81-1.9c4-3.94,4.22-5.93,5.74-9.06a3.56,3.56,0,0,0,.38-2.35c-.06-.34-.72.55-.66,0,.14-1.4.93-5.24.25-4.47-.78,1-.33-1.39-.16-3.37a38.09,38.09,0,0,1-2.06,5.64c.95-2.94.68-3.63.59-4.44a25.57,25.57,0,0,1,.25-5.34l-.49,2.37a33.61,33.61,0,0,0-1.69-5.75,31.58,31.58,0,0,1-2,11c-.27-.11-.31-1.05-.89-.14-1.44,2.42-3.77,7.19-6.45,10a17.37,17.37,0,0,1-5.39,4.37c-1.45.6-3,1.53-5.24,2.53a30.79,30.79,0,0,1-3.51,1.22l-.05-.14a30.1,30.1,0,0,0,9.68-5.27,35.5,35.5,0,0,1-5.95,3.48,29.16,29.16,0,0,1-16,2.43c-4.35-.5-9.07-3.41-6.54-3a36.45,36.45,0,0,0,6.77.47l2.13.16-.3.33a26.82,26.82,0,0,0,4.78-.49c-1.72,0-2.66-.07-2.88-.05-.1-.26-.28-.45-.21-.64.18-.54-.82-1.08,2.31-1.67,1.26-.33,3.22-.83,3.46-1.18s1-.48,2.37-1.05a11,11,0,0,0,3.33-1.88c.43-.51-.21-.48-.43-.74l.86-.68a20,20,0,0,1-4.41,2.08l-.23.5a30.45,30.45,0,0,1-12.74.5,8,8,0,0,0,1,0,24.72,24.72,0,0,1-2.84-.89,3.67,3.67,0,0,0-.75-1.13,14.47,14.47,0,0,0-1.83-1.12,19.51,19.51,0,0,1-8.43-8.14c-.56-.8-.92-1.82-1.36-2.53A20.88,20.88,0,0,1,234.86,35,23.31,23.31,0,0,1,244,20.81c1.66-1.37,4.57-2.46,3.82-2.87-.41-.17.31-.66,3.13-1.22l2.18-.36a23.84,23.84,0,0,1,16,3.73,18.25,18.25,0,0,1,1.86,1.6l-.34-.13a23.87,23.87,0,0,1,8.68,13.53c.39-.69,1.05.73,1.3,3.1a10.46,10.46,0,0,1,1.79,1.62c.63,1,1.36-1.13,0-6.44a27.74,27.74,0,0,0-4.54-9.22,23,23,0,0,0-4.54-4.69A29.14,29.14,0,0,0,257.52,14a20.44,20.44,0,0,0-3.84.2,25.4,25.4,0,0,0-5.7,1.56c.31-.84-1-.95-4.82,1.06A27.78,27.78,0,0,0,238,20.67a26.56,26.56,0,0,0-8.58,18.56s-.07.06-.12.1V38.26a26.93,26.93,0,0,1,13.45-21.79,21.05,21.05,0,0,1,2-.83,28.31,28.31,0,0,1,6.11-2c-.22-.16-.14-.43-.74-.46a25.15,25.15,0,0,0-5.44.26c3.17-1.69,3.25-1.6,5.72-1.7a18.06,18.06,0,0,0,2-.17,51.21,51.21,0,0,1,11.9.14,6.06,6.06,0,0,1,2,.35,28.62,28.62,0,0,1,9.06,5.25c4.77,4.11,7.48,8.29,7.35,6.37,0-.3.1-.37.34-.29a36.28,36.28,0,0,1,3.39,9.85h2.1l.13.41-2.16,0c.19,1.18.32,2.37.41,3.57,1.29-.05,2.31-.12,3.07-.2l.08.07c.06,0,.13,0,.19-.1l.3-.06a.47.47,0,0,1,.08.17c.6,2.9,1.09,1.94,1.12-.79h.36c.14.55.32,1.13.42,1.65,0-.56,0-1.11,0-1.67,1.54,0,4.17,0,8.25,0,2,.05,4.37-.08,6.3.08a25.65,25.65,0,0,1,19.25,10.7,24.79,24.79,0,0,1,4.41,10.39c.66,3.64.35,7.76.42,11.81-.06,2.39-.13,4.76-.19,7.14l-.1-1,.05,11.9c-.05,4,.24,8.06-.29,11.62A25.54,25.54,0,0,1,318.39,117c1.63-.51-1.56,2.55-7.92,4a16.75,16.75,0,0,1-4.37,2.17c-1.35.43-.67.66,2.24.65a26.38,26.38,0,0,0,14.14-5.35A29.26,29.26,0,0,0,334.3,94.36c0-5.66-.1-12.06-.13-16.84-.09-3.53-.19-7.07-.28-10.64s0-7.28-.93-11a28.86,28.86,0,0,0-13.8-18.19,26.44,26.44,0,0,0-9.85-3.19c-5-.49-9.74,0-15.95.06.61-.34.32-.56-1-.71,0-.2,0-.4-.07-.61h9.86c-.48-.2-.16-.42-1.61-.6L292,31.73c0-.23-.1-.45-.16-.69a57.27,57.27,0,0,1,10,.28l4.91.2a32.17,32.17,0,0,1,16.69,5.71,35.67,35.67,0,0,1,9.6,10.18,22.5,22.5,0,0,1,2.42,4.91c1.59,4.33,1.64,9.61,1.57,13.38V77.95c0,7.41.2,13.63.38,18.07,0,4.83-.36,7.06.53,4.86.47-1.54.78.37.14,3.86a29,29,0,0,1-5.63,12.07,38.68,38.68,0,0,1-14.27,11c-3.15,1.46-4.42,1.82-4.91,2.27-.4.29,2-.05,0,.59-4.44,1.16-5.52,1.29-4.12,1.46a29.11,29.11,0,0,0,10.07-1.87,35.87,35.87,0,0,1-8.19,2.67,36.65,36.65,0,0,0,14-4.59,37.11,37.11,0,0,0,7.46-5.7,52.41,52.41,0,0,0,5.07-6,38.34,38.34,0,0,0,5.32-10.68,37.07,37.07,0,0,0,1.36-6.22,30.67,30.67,0,0,0,.27-3.23l.07-1.6V93.71c0-6.14,0-12.47,0-18.62,0-3.85,0-7.75-.06-11.75l24.16.18,15.24,0,3.74,0,3.26.17a53.08,53.08,0,0,1,6.42.79c17,3.26,30.72,15.11,36.91,28.37A54.42,54.42,0,0,0,424,77.11a52,52,0,0,0-13.3-10.43A49.65,49.65,0,0,0,395.45,62a60.75,60.75,0,0,0-8.53-.64l-9.58,0-32.74,0c0-.71-.08-1.5-.13-2.25,0-.17,0-.34-.06-.52l29.35-.13c5.66.06,12.35-.3,18.18.12a56.68,56.68,0,0,1,16.33,3.61c9.36,3.53,14.35,8,12.25,5.88-1.18-1.08-.12-.42,4.1,2.73A57.51,57.51,0,0,1,441.49,94a58.57,58.57,0,0,1,4.21,21.61q0,86.29,0,172.58c-.06,8.53-.12,16.89-.18,25.34l-.09-3.62c0,28.15.07,56.31.1,84.66q0,21.27.05,42.7a58.74,58.74,0,0,1-13.84,38.63c2.08-2.07.84-.12-3.19,4.29a57.22,57.22,0,0,1-22.94,14.2c-5.32,2.1-8.84,3.59-15.74,4.36-2.36.29-2.95.47-1.68.52a46.47,46.47,0,0,0,9.32-.58,57.28,57.28,0,0,0,19.44-6.56,61.74,61.74,0,0,0,22.84-21.93A60.92,60.92,0,0,0,447.95,448c1.24-8,.68-15.84.79-23.66,0-15.69-.05-31.44-.08-47.1,0-20.1-.09-42.89-.13-59.78l-.73-157.88c0-12.34-.1-24.65-.15-36.41.07-8.69,0-17.58-3.21-26.3A60,60,0,0,0,428.28,72c2.08,1.53,1.32.08-4.24-4.54A58.61,58.61,0,0,0,411,59.67a60.5,60.5,0,0,0-24.26-4.77l-42.79,0,0-.25c0-.08,0-.16-.06-.24l41.19,0a64.88,64.88,0,0,1,19.7,2.66,62.25,62.25,0,0,1,25.61,15.13,62.92,62.92,0,0,1,15.53,25.47c-.39-1.72.2-.65-1.47-5.69a63.15,63.15,0,0,0-31.88-34.08,62.93,62.93,0,0,1,16,9.77,64.17,64.17,0,0,1,8.26,8.4c4.06,5.25,7.13,9.92,10.59,20.3.88,3,3,11,2.83,17.5.07,31.44.37,86.78.82,101.32.11,4,.29,10.65.3,16.9,0,28.81,0,58,0,86.87,0,52.12.64,91.51,1.37,77.88.25-4.69.64.76,1,10.73l.43,17.63c0,6.59.46,13.19-.29,21A66.72,66.72,0,0,1,441,478.34a70.93,70.93,0,0,1-15.27,15.14,75.84,75.84,0,0,1-9.87,6c-2.23,1.27-3.58,1.79-4.37,2.22-1.22.64,5.62-1.66-.3.67a71,71,0,0,1-12.69,3.74c-2,.43-1.72.5.34.29a65.21,65.21,0,0,0,28.41-11,68.61,68.61,0,0,1-23,10.9,66.48,66.48,0,0,0,19.74-8,68,68,0,0,0,17.18-14.44,70.92,70.92,0,0,0,13.49-24.22c3-9,3.25-18.37,3.35-22.79.48-38,.4-84.38.43-128-.06-27.94-.13-56.44-.19-87.69.71,3.36,1.55,36.34,1.68-45.27l.79,7.89c.06-14.45.11-29.35.17-43,0-6.82.06-13.32.09-19.3C461,116.08,461,108.66,459.92,103.07Zm-388,380.66a70.67,70.67,0,0,0,31.87,21.12A72.57,72.57,0,0,0,122.89,508c6,.16,11.22.07,16.87.11l66.57.15-2.78.2-21.79-.1-36.29.08-15.31,0c-2.69,0-4.81.1-8-.1a56.84,56.84,0,0,1-8.94-.87A69.19,69.19,0,0,1,81,493.21a68.21,68.21,0,0,1-14-15.47C68.68,479.75,70.14,481.9,71.92,483.73Zm-7.8-368.51c0,6.73-.08,17.87-.16,37.26-.09-17.09-.12-23-.15-28.83l0,.89c0,12.15,0,24.31,0,38.66-.08-9.46-.15-19-.22-28.16.1-9.24-.46-18,.35-26.52a60.4,60.4,0,0,1,6.94-21.86A64,64,0,0,1,81.19,73,60.34,60.34,0,0,0,64.12,115.22Zm152.75,17.63,37.5.33-.78.21-6.14-.1-10.22.08-17.18,0c-1.94,0-3.38-.25-5-.39Zm-84.79-78a6.63,6.63,0,0,1-1-.1l9.9-.06,24.25,0c0,.07,0,.14,0,.21Zm51.56-8.9a29.94,29.94,0,0,0-4.51,9.71A33.87,33.87,0,0,1,180.54,51a27.88,27.88,0,0,0-2.12,7.63A27.27,27.27,0,0,1,184.26,44a25.78,25.78,0,0,1,9-7.18A29.67,29.67,0,0,0,183.64,45.92Zm25.12-12.39c-.12,0-.17-.07-.28-.11l2.79-.07,5.05,0c0,.07,0,.14,0,.22Zm57.72,41A36.31,36.31,0,0,0,283,64.47l-.12.45c-.74.79-1.57,1.48-2.37,2.19a39.9,39.9,0,0,1-4.17,3.39,33.89,33.89,0,0,1-8.09,4.07,8.92,8.92,0,0,1-2.65.42Zm-34.84-24.8a39.42,39.42,0,0,0,1.62,3.63,28.39,28.39,0,0,1-1.57-2.68v.11a26.43,26.43,0,0,0,2,3.65,17.7,17.7,0,0,1-3.9-9.33A34.6,34.6,0,0,0,231.63,49.78Zm56.26-18.5-.31,0h.3ZM77.84,109.85a86.66,86.66,0,0,0-.32,10.21l.08,11.82q.08,11.85.16,23.83c.11,16,.21,32.21.32,48.8-.16,8.77-.34,18-.6,31.71,0,6.34,0,21.47,0,32.61.15-.05.34,3.76.45-.89.39-15.52.58-11.31.58,21.08,0,42.12.32,87-.16,125.67-.09,7.74-.28,16.7-.4,15.17-.71-9.24-1.42-20.6-2.13-32.89-.3-5.29-.38-18.38-.33-42.72.06-58,.13-116.95.19-175.42.05-13.26.1-26.38.15-38.29.06-5.95.12-11.59.17-16.8l.1-7.46.36-5.54a42.87,42.87,0,0,1,3.83-13.12c1-1.88.84-1.31-.37,2.61A50.75,50.75,0,0,0,77.84,109.85ZM213.22,486.49l8.56-.44-8.57.09-69.8-.9L126,485c-5.16-.2-9.26-.51-13.69-1.94A46.08,46.08,0,0,1,90,468.54c.93.87,1.73,1.86,2.73,2.65a45.3,45.3,0,0,0,30.61,12.91l165.05.42c50.09.44,67.82,1.44,27.74,2l-26.64.17ZM193.41,59.41a14.55,14.55,0,0,0-.11,1.64l0,2.42.17,6.94c-.18,2.47-.45,5.07-.64,8.93-.09,1.78,0,6,0,9.19.16,0,.36,1.06.49-.25.42-4.37.62-3.19.63,5.94-.27,6.37,4.2,10.93,8.84,13,.93.38,2.07.78,1.86.85a10,10,0,0,1-5.27.63c-.81-.18-3-1-5.44-4.23A15.82,15.82,0,0,1,191.11,98a22.23,22.23,0,0,1-.27-3.88l0-6.18c0-8.25,0-16.52.05-24.75a18.86,18.86,0,0,1,.07-2.09,7.43,7.43,0,0,1,.2-1.55,11,11,0,0,1,.86-2.83,12.39,12.39,0,0,1,2.72-4c1.94-1.83,3.18-2,2.25-.77l-1.11,1.44A14.27,14.27,0,0,0,193.41,59.41Zm62.91,50.45,2.41-.47-2.41.1L217,107.57l1.39-.19H230.9c15.51.11,31.59-.13,46.59.37,14.11.47,19.1,1.54,7.81,2.17-1.81.1-5.14.2-7.51.18ZM244.89,48.29c-1.91-2.49-1.45-5.52-.49-4.63a1.76,1.76,0,0,1,.39.51,11.69,11.69,0,0,0,2.93,3.5,5.08,5.08,0,0,0,.63,1.51,5.83,5.83,0,0,0,1.27,1c.09-.14.35-.22.23-.43-.38-.73-.08-.76,1.13-.05A24.28,24.28,0,0,0,256.3,51c.35.07.78.27.72.4a7.92,7.92,0,0,1-1.65,2.29c-.31.34-1.09.38-2.44,0A14.63,14.63,0,0,1,244.89,48.29Zm-.23-21.62a7.08,7.08,0,0,0-1.75,1.89,6.38,6.38,0,0,0-.81,2.71,6.44,6.44,0,0,1-.95,2.64c-.83,1.47-.94,3.91-1.74,4.26-.37.16-.84,1.92-1.07,2.93-.1.33-.26.52-.39.38a7.76,7.76,0,0,1-.73-1.18,19.44,19.44,0,0,1,2.08-10A13.53,13.53,0,0,1,243.44,25a29.11,29.11,0,0,1,5-3.11l1.77.57c.54.14,1.18.4,1.8.62C249.68,23.64,247.21,25.16,244.66,26.67Zm24,17.15a5.23,5.23,0,0,1-.3,1.4A13.69,13.69,0,0,1,266,48.55a3.76,3.76,0,0,0-.07-.64,1.71,1.71,0,0,1-.21.4,11.49,11.49,0,0,1-6.51,2.06,1.64,1.64,0,0,0,.14-.25c.6-.2,1.17-.49,1.75-.73,2.17-1.09,3.69-3.13,5.07-5C267.3,42.51,268.52,41.58,268.63,43.82Zm84.15,180.45c0-.22.46-.49-.09-.66-1.45-.46-4.26-.25-6.29-.2a14.69,14.69,0,0,1-3.67-.2,11.89,11.89,0,0,0-3.1-.26c-.66,0-1.33,0-2-.05,0,0,0-.08,0-.11l6-.18c-1.3-.08-2.54-.08-3.77-.08-3,0-6,0-9,0-2.34,0-5.36-.59-4-1,1-.33,2.55-.61,3.93-.9.18,0,.84,0,1.28,0l-.17.26,2.86-.27-1.73-.19c-.06-.2-.17-.34-.12-.49.13-.4-.55-.84,1.53-1.17a14.59,14.59,0,0,0,2.41-.41c.29-.22.73-.21,1.75-.23a14,14,0,0,0,2.63-.24c.43-.16,0-.39,0-.64l.78-.1-3.53,0-.27.29c-1.61-.08-3-.19-4.5-.2s-3,.07-4.72.13l.69-.19-2.16-.09a2.51,2.51,0,0,0-.81-.6,6.52,6.52,0,0,0-1.62-.2c-3.15.17-6-.13-9.09-.12-.74,0-1.57,0-2.21,0-3.3.25-7,.23-10.41.39-4.32.19-8.65.36-12.67.69-1.53.13-3.72.18-3.32.67.22.26-.34.28-2.31.21-.48,0-1,0-1.51,0H272.18c-.57,0-1.12-.09-1.68-.14l.24-.07-11.29.17c.4.4-.63.62-2.19.65a10.24,10.24,0,0,1-1.08,1.28c-.62.55.64.76,3.9.64,2-.07,4.14-.1,6.22-.14,1.33,0,2.84,0,4-.1,3.32-.3,6.68-.54,10.46-.59.82,0,1.63-.07,2.41-.12l3.74-.28c-.34.59.41.74,3,.72,1.33,0,2.65-.06,4-.05q6.45,0,12.9.11s0,.05.07.09c-.21,0-.43,0-.66,0l-16.16.19c-.41,0-.85-.12-1.3-.12-1.3,0-2.6,0-3.91,0,.11.15,0,.32.38.45.9.35,2,.69,3,1.05-2,.33-2,.32-3.37,0a7.12,7.12,0,0,0-1.12-.1,29.62,29.62,0,0,0-6.71.59,3.81,3.81,0,0,1-1.12.24c-1.91,0-3.84,0-5.75,0-3.45,0-6.06.52-5.16,1.1.62.4-1.45,1.24-3.21,1.29-3.39.09-4.11.49-4.32.87-.08.14.34.32,0,.42-1.61.44-.72.77,1,1l-1.45.35c.82.1,1.57.23,2.48.28s2.32-.05,2.88,0a63.48,63.48,0,0,0,8.48.34c1.85,0,3.74-.1,5.81-.16-.22.57-2.41,1.24,3,1.35l-.52.64c1.91.11,3.95.14,5.19.32a24,24,0,0,0,5.25.15,4.82,4.82,0,0,0,1.68-.54l-.16-.15c1.61.09,3.65.1,4.76.28a44.68,44.68,0,0,0,10.24.23c.54-.05,1.3-.06,2-.06,3.43,0,6.86,0,10.27,0,3,0,5.88-.17,8.84-.2,2.5,0,5.17,0,7.5.1a97.22,97.22,0,0,0,10.91.08,7.26,7.26,0,0,1,1.07,0c2.27.4,2.94-.16,4.38-.24a1.17,1.17,0,0,0,.94-.5c.12-.15-.33-.31-.11-.45.56-.34,2.23-.7,1.83-1s.54-.52,1.42-.75l-2.7-.25c2.78-.25,1.1-1,4.5-1.12l-1.14-.11,2.75-1.65Zm-42.38-4.09c1-.11,2-.25,3-.33.45,0,1.18.05,2.47.11l-1.91.12.06,0,2.56,0A23.54,23.54,0,0,1,310.39,220.18Zm35.9,7.43c-.48,0-1-.08-1.44-.08-.8,0-1.6,0-2.4.06-1.35,0-2.72.06-4,0a4.68,4.68,0,0,1-1.19-.29l.44-.13,8.82.24Zm-22.68-18.49c0-.12.25-.27-.06-.37-1-.31-.75-.46,1.4-.47a58.63,58.63,0,0,1,8.32.13c.51.08,1.11.23,1,.32a19.54,19.54,0,0,1-2.18,1.71,6.13,6.13,0,0,1-2.83.27c-3.84-.09-7.75-.16-11.62-.15-3.51,0-6.88-.72-5.5-1.28a3.92,3.92,0,0,1,.83-.13l6.37-.52a21.39,21.39,0,0,0,2.1.48C321.88,209.16,322.88,209.11,323.62,209.11ZM286.83,214c-.42-.26-.91-.52-1.42-.81a53.12,53.12,0,0,1,7.71.1,10.34,10.34,0,0,0,4.95-.82,6,6,0,0,1,2.79-.29c1.67.09,4.13-.08,4.56.48a14.09,14.09,0,0,0,2.79.76c.29.08.45.21.32.31a7.64,7.64,0,0,1-1.06.5c-3.13.14-6,.24-8.8.4a44.67,44.67,0,0,1-5.66.2c-1.57-.08-3.45,0-4.93,0C287.65,214.59,287.28,214.31,286.83,214ZM346.94,210l.57-.35-.57.08-9.25-1.45.33-.14c1,0,2,0,2.94,0,3.65.09,7.43-.1,11,.28,3.32.35,4.49,1.16,1.84,1.63a10.67,10.67,0,0,1-1.77.13C350.34,210.11,348.73,210,346.94,210ZM152,228.08c.57.34,1.54.71,1.87,1a34,34,0,0,0,5.38,3.08c1.2.62,2.48,1.14,3.86,1.76-.4.43-2.13.33,1.35,2.18l-.62.4,5,2.84a51.3,51.3,0,0,0,6.79,3.56,5.94,5.94,0,0,0,2.13.46l-.22-.28,5.35,2.91.48-.59a89.17,89.17,0,0,0,8.29-12c.39-.68,1-1.6,1.53-2.39l4.5-6.72,3.42-5.48c1-1.53,2.07-3.16,3.12-4.5a51.9,51.9,0,0,0,4.48-6.58,3.69,3.69,0,0,1,.45-.64c1.25-1.16,1.06-1.88,1.58-2.79a.85.85,0,0,0,0-.85c-.07-.16-.39,0-.42-.18-.06-.52.32-1.74-.07-1.66s-.22-.62,0-1.28l-1.31,1.5c.92-1.83-.36-1.2.89-3.35l-.55.63-.26-2.58-2.31,3.47c-.18-.12-.22-.55-.59-.32-1,.62-1.93,2.45-2.72,3.71a7.94,7.94,0,0,1-1.65,2.12,6.42,6.42,0,0,0-1.47,1.74l-.85,1.18-.1-.06,2.29-3.75c-.6.75-1.09,1.5-1.6,2.24l-3.67,5.43c-1,1.4-2.66,2.93-2.46,1.85a27.71,27.71,0,0,1,.84-2.88,7.57,7.57,0,0,1,.52-.78l.15.24.94-1.89-.85.95c-.19-.08-.36-.09-.46-.2-.28-.3-.92-.13-.35-1.58a8.13,8.13,0,0,0,.64-1.69c-.06-.3.12-.56.52-1.19a7.53,7.53,0,0,0,.87-1.73c0-.35-.31-.24-.54-.35l.24-.53-1.47,2.12.13.33c-.71.93-1.39,1.74-2,2.62s-1.14,1.84-1.81,2.94l.12-.52-1,1.26a2,2,0,0,0-.83.16,3.57,3.57,0,0,0-.82.88c-1.14,2-2.56,3.6-3.78,5.46-.3.45-.65.95-.87,1.36-.55,1.06-1.24,2.19-1.87,3.23l-1.46,2.47-2.33,4.2-2.27-.79c-.79-.25-2-.79-1.82-.16.1.35-.23.2-1.36-.45l-.87-.43-7.31-3.67a10.35,10.35,0,0,1-1-.68h.19l-7.45-3.54c.08.49-.69.35-1.72-.13a10.19,10.19,0,0,1-1.28.79c-.65.29.08.89,2.26,1.85l4.12,1.9c.88.41,1.86.93,2.63,1.2a70.71,70.71,0,0,1,7.09,2.89l1.65.69,2.54,1c-.32.5.17.91,2,1.81l2.74,1.31,1,.49,5-7.34h.09l-.25.46-4.73,7.34-3.74-1.8c-.3-.14-.61-.43-.93-.6l-2.77-1.39c0,.19-.06.33.16.58.57.68,1.34,1.44,2.17,2.26a4.38,4.38,0,0,1-2.67-1.39,6,6,0,0,0-.86-.54,16.35,16.35,0,0,0-4.93-1.8,2.16,2.16,0,0,1-.84-.15l-3.76-1.86c-2.24-1.15-4.19-1.52-3.86-.7.23.56-1.5.64-2.67.1-2.26-1-2.91-.9-3.21-.64-.11.1.08.4-.21.37-1.25-.13-.81.45.2,1.24l-1.11-.16C151,227.38,151.43,227.74,152,228.08Zm50.89-17.34,3.77-5.22.06.2c-.22.28-.46.54-.65.83l-.92,1.49-1.61,2.47a2.68,2.68,0,0,1-.73.56ZM187,221.38a17.23,17.23,0,0,1,1.09-1.44l-.67,1.23.05,0,1-1.57a12.6,12.6,0,0,1-2.45,3.83Zm-5.7-10.83a12.54,12.54,0,0,0,.89-1.3c-.1-.07-.13-.3-.33-.17-.68.45-.69.2.17-1.11a31.27,31.27,0,0,1,3.48-5c.27-.27.64-.55.67-.43a16.1,16.1,0,0,1,.54,2.27c.06.35-.24.91-.92,1.87-1.63,2.28-3.27,4.62-4.83,7-1.42,2.14-3.38,3.78-3.3,2.63a2.22,2.22,0,0,1,.23-.58l2.15-4.16A12.34,12.34,0,0,0,181.26,210.54Zm-3.7,11.16c.31-.29.55-1,1-.66.22.15.69-.13,1.08-.24a.27.27,0,0,1,.31.08,2.54,2.54,0,0,1,.17.64l-1.76,3.37-.73,1.49a5.05,5.05,0,0,1-.88-.46,15.89,15.89,0,0,0-1.94-.93l-.37-1.14-.31-1.06a6.38,6.38,0,0,1,2.32,1.27,1.29,1.29,0,0,0,.63.26l0-.12a6.1,6.1,0,0,0,.15-1.55A1.1,1.1,0,0,1,177.56,221.7Zm14.51-26.3-5,4.81,0-.28,1.19-1.79a72.58,72.58,0,0,1,4.67-6.5c1.64-1.82,2.78-2.09,2.1-.21a5.75,5.75,0,0,1-.6,1.15l-2.2,3-.06-.54Zm160.7,118.53c0-.22.46-.49-.09-.66-1.45-.46-4.26-.25-6.29-.2a14.69,14.69,0,0,1-3.67-.2,11.89,11.89,0,0,0-3.1-.26c-.66,0-1.33,0-2-.05,0,0,0-.08,0-.11l6-.18c-1.3-.08-2.54-.08-3.77-.08-3,0-6,0-9,0-2.34,0-5.36-.59-4-1,1-.33,2.55-.61,3.93-.9.18,0,.84,0,1.28,0l-.17.26,2.86-.27-1.73-.19c-.06-.2-.17-.34-.12-.49.13-.4-.55-.84,1.53-1.17a14.59,14.59,0,0,0,2.41-.41c.29-.22.73-.21,1.75-.23a14,14,0,0,0,2.63-.24c.43-.16,0-.39,0-.64l.78-.1-3.53,0-.27.29c-1.61-.08-3-.19-4.5-.2s-3,.07-4.72.13l.69-.19-2.16-.09a2.51,2.51,0,0,0-.81-.6,6.52,6.52,0,0,0-1.62-.2c-3.15.17-6-.13-9.09-.12-.74,0-1.57,0-2.21,0-3.3.25-7,.23-10.41.39-4.32.19-8.65.36-12.67.69-1.53.13-3.72.18-3.32.67.22.26-.34.28-2.31.21-.48,0-1,0-1.51,0H272.18c-.57,0-1.12-.09-1.68-.14l.24-.07-11.29.17c.4.4-.63.62-2.19.65a10.24,10.24,0,0,1-1.08,1.28c-.62.55.64.76,3.9.64,2-.07,4.14-.1,6.22-.14,1.33,0,2.84,0,4-.1,3.32-.3,6.68-.54,10.46-.59.82,0,1.63-.07,2.41-.12l3.74-.28c-.34.59.41.74,3,.72,1.33,0,2.65-.06,4-.05q6.45,0,12.9.11s0,.05.07.09c-.21,0-.43,0-.66,0L290,310.1c-.41,0-.85-.12-1.3-.12-1.3,0-2.6,0-3.91,0,.11.15,0,.32.38.45.9.35,2,.69,3,1.05-2,.33-2,.32-3.37,0a7.12,7.12,0,0,0-1.12-.1,29.62,29.62,0,0,0-6.71.59,3.81,3.81,0,0,1-1.12.24c-1.91,0-3.84,0-5.75,0-3.45,0-6.06.52-5.16,1.1.62.4-1.45,1.24-3.21,1.29-3.39.09-4.11.49-4.32.87-.08.14.34.32,0,.42-1.61.44-.72.77,1,1l-1.45.35c.82.1,1.57.23,2.48.28s2.32-.05,2.88,0a63.48,63.48,0,0,0,8.48.34c1.85,0,3.74-.1,5.81-.16-.22.57-2.41,1.24,3,1.35l-.52.64c1.91.11,3.95.14,5.19.32a24,24,0,0,0,5.25.15,4.82,4.82,0,0,0,1.68-.54l-.16-.15c1.61.09,3.65.1,4.76.28a44.68,44.68,0,0,0,10.24.23c.54-.05,1.3-.06,2-.06,3.43,0,6.86,0,10.27,0,3,0,5.88-.17,8.84-.2,2.5,0,5.17,0,7.5.1a97.22,97.22,0,0,0,10.91.08,7.26,7.26,0,0,1,1.07,0c2.27.4,2.94-.16,4.38-.24a1.17,1.17,0,0,0,.94-.5c.12-.15-.33-.31-.11-.45.56-.34,2.23-.7,1.83-1s.54-.52,1.42-.75l-2.7-.25c2.78-.25,1.1-1,4.5-1.12l-1.14-.11,2.75-1.65Zm-42.38-4.09c1-.11,2-.25,3-.33.45,0,1.18.05,2.47.11l-1.91.12.06,0,2.56,0A23.54,23.54,0,0,1,310.39,309.83Zm35.9,7.43c-.48,0-1-.08-1.44-.08-.8,0-1.6,0-2.4.06-1.35,0-2.72.06-4,0a4.68,4.68,0,0,1-1.19-.29l.44-.13,8.82.24Zm-22.68-18.49c0-.12.25-.27-.06-.37-1-.31-.75-.46,1.4-.47a58.63,58.63,0,0,1,8.32.13c.51.08,1.11.23,1,.32a19.54,19.54,0,0,1-2.18,1.71,6.13,6.13,0,0,1-2.83.27c-3.84-.09-7.75-.16-11.62-.15-3.51,0-6.88-.72-5.5-1.28a3.92,3.92,0,0,1,.83-.13l6.37-.52a21.39,21.39,0,0,0,2.1.48C321.88,298.81,322.88,298.76,323.62,298.76Zm-36.79,4.91c-.42-.26-.91-.52-1.42-.81a53.12,53.12,0,0,1,7.71.1,10.34,10.34,0,0,0,4.95-.82,6,6,0,0,1,2.79-.29c1.67.09,4.13-.08,4.56.48a14.09,14.09,0,0,0,2.79.76c.29.08.45.21.32.31a7.64,7.64,0,0,1-1.06.5c-3.13.14-6,.24-8.8.4a44.67,44.67,0,0,1-5.66.2c-1.57-.08-3.45,0-4.93,0C287.65,304.24,287.28,304,286.83,303.68Zm60.11-4.06.57-.35-.57.08-9.25-1.45.33-.14c1,0,2,0,2.94,0,3.65.09,7.43-.1,11,.28,3.32.35,4.49,1.16,1.84,1.63a10.67,10.67,0,0,1-1.77.13C350.34,299.76,348.73,299.68,346.94,299.62ZM152,317.73c.57.34,1.54.71,1.87,1a34,34,0,0,0,5.38,3.08c1.2.62,2.48,1.14,3.86,1.76-.4.43-2.13.33,1.35,2.18l-.62.4,5,2.84a51.3,51.3,0,0,0,6.79,3.56,5.94,5.94,0,0,0,2.13.46l-.22-.28,5.35,2.91.48-.59a89.17,89.17,0,0,0,8.29-12c.39-.68,1-1.6,1.53-2.39l4.5-6.72,3.42-5.48c1-1.53,2.07-3.16,3.12-4.5a51.9,51.9,0,0,0,4.48-6.58,3.69,3.69,0,0,1,.45-.64c1.25-1.16,1.06-1.88,1.58-2.79a.85.85,0,0,0,0-.85c-.07-.16-.39,0-.42-.18-.06-.52.32-1.74-.07-1.66s-.22-.62,0-1.28l-1.31,1.5c.92-1.83-.36-1.2.89-3.35l-.55.63-.26-2.58-2.31,3.47c-.18-.12-.22-.55-.59-.32-1,.62-1.93,2.45-2.72,3.71a7.94,7.94,0,0,1-1.65,2.12,6.42,6.42,0,0,0-1.47,1.74l-.85,1.18-.1-.06,2.29-3.75c-.6.75-1.09,1.5-1.6,2.24l-3.67,5.43c-1,1.4-2.66,2.93-2.46,1.85a27.71,27.71,0,0,1,.84-2.88,7.57,7.57,0,0,1,.52-.78l.15.24.94-1.89-.85.95c-.19-.08-.36-.09-.46-.2-.28-.3-.92-.13-.35-1.58a8.13,8.13,0,0,0,.64-1.69c-.06-.3.12-.56.52-1.19a7.53,7.53,0,0,0,.87-1.73c0-.35-.31-.24-.54-.35l.24-.53-1.47,2.12.13.33c-.71.93-1.39,1.74-2,2.62s-1.14,1.84-1.81,2.94l.12-.52-1,1.26a2,2,0,0,0-.83.16,3.57,3.57,0,0,0-.82.88c-1.14,2-2.56,3.6-3.78,5.46-.3.45-.65.95-.87,1.36-.55,1.06-1.24,2.19-1.87,3.23l-1.46,2.47-2.33,4.2-2.27-.79c-.79-.25-2-.79-1.82-.16.1.35-.23.2-1.36-.45l-.87-.43-7.31-3.67a10.35,10.35,0,0,1-1-.68h.19l-7.45-3.54c.08.49-.69.35-1.72-.13a10.19,10.19,0,0,1-1.28.79c-.65.29.08.89,2.26,1.85l4.12,1.9c.88.41,1.86.93,2.63,1.2a70.71,70.71,0,0,1,7.09,2.89l1.65.69,2.54,1c-.32.5.17.91,2,1.81l2.74,1.31,1,.49,5-7.34h.09l-.25.46-4.73,7.34-3.74-1.8c-.3-.14-.61-.43-.93-.6l-2.77-1.39c0,.19-.06.33.16.58.57.68,1.34,1.44,2.17,2.26a4.38,4.38,0,0,1-2.67-1.39,6,6,0,0,0-.86-.54,16.35,16.35,0,0,0-4.93-1.8,2.16,2.16,0,0,1-.84-.15l-3.76-1.86c-2.24-1.15-4.19-1.52-3.86-.7.23.56-1.5.64-2.67.1-2.26-1-2.91-.9-3.21-.64-.11.1.08.4-.21.37-1.25-.13-.81.45.2,1.24l-1.11-.16C151,317,151.43,317.39,152,317.73Zm50.89-17.34,3.77-5.22.06.2c-.22.28-.46.54-.65.83l-.92,1.49-1.61,2.47a2.68,2.68,0,0,1-.73.56ZM187,311a17.23,17.23,0,0,1,1.09-1.44l-.67,1.23.05,0,1-1.57a12.6,12.6,0,0,1-2.45,3.83Zm-6-7.72c-1.42,2.14-3.38,3.78-3.3,2.63a2.22,2.22,0,0,1,.23-.58L180,301.2a12.34,12.34,0,0,0,1.25-1,12.54,12.54,0,0,0,.89-1.3c-.1-.07-.13-.3-.33-.17-.68.45-.69.2.17-1.11a31.27,31.27,0,0,1,3.48-5c.27-.27.64-.55.67-.43a16.1,16.1,0,0,1,.54,2.27c.06.35-.24.91-.92,1.87C184.13,298.62,182.49,301,180.93,303.31Zm-1.28,7.14a.27.27,0,0,1,.31.08,2.54,2.54,0,0,1,.17.64l-1.76,3.37-.73,1.49a5.05,5.05,0,0,1-.88-.46,15.89,15.89,0,0,0-1.94-.93l-.37-1.14-.31-1.06a6.38,6.38,0,0,1,2.32,1.27,1.29,1.29,0,0,0,.63.26l0-.12a6.1,6.1,0,0,0,.15-1.55,1.1,1.1,0,0,1,.28-1c.31-.29.55-1,1-.66C178.8,310.84,179.27,310.56,179.66,310.45ZM193,281.29c1.64-1.82,2.78-2.09,2.1-.21a5.75,5.75,0,0,1-.6,1.15l-2.2,3-.06-.54-.17.39-5,4.81,0-.28,1.19-1.79A72.58,72.58,0,0,1,193,281.29ZM352.77,403.57c0-.22.46-.49-.09-.66-1.45-.46-4.26-.25-6.29-.2a14.69,14.69,0,0,1-3.67-.2,11.89,11.89,0,0,0-3.1-.26c-.66,0-1.33,0-2-.05,0,0,0-.08,0-.11l6-.18c-1.3-.08-2.54-.08-3.77-.08-3,0-6,0-9,0-2.34,0-5.36-.59-4-1,1-.33,2.55-.61,3.93-.9.18,0,.84,0,1.28,0l-.17.26,2.86-.27-1.73-.19c-.06-.2-.17-.34-.12-.49.13-.4-.55-.84,1.53-1.17a14.59,14.59,0,0,0,2.41-.41c.29-.22.73-.21,1.75-.23a14,14,0,0,0,2.63-.24c.43-.16,0-.39,0-.64l.78-.1-3.53,0-.27.29c-1.61-.08-3-.19-4.5-.2s-3,.07-4.72.13l.69-.19-2.16-.09a2.51,2.51,0,0,0-.81-.6,6.52,6.52,0,0,0-1.62-.2c-3.15.17-6-.13-9.09-.12-.74,0-1.57,0-2.21,0-3.3.25-7,.23-10.41.39-4.32.19-8.65.36-12.67.69-1.53.13-3.72.18-3.32.67.22.26-.34.28-2.31.21-.48,0-1,0-1.51,0H272.18c-.57,0-1.12-.09-1.68-.14l.24-.07-11.29.17c.4.4-.63.62-2.19.65a10.24,10.24,0,0,1-1.08,1.28c-.62.55.64.76,3.9.64,2-.07,4.14-.1,6.22-.14,1.33,0,2.84,0,4-.1,3.32-.3,6.68-.54,10.46-.59.82,0,1.63-.07,2.41-.12l3.74-.28c-.34.59.41.74,3,.72,1.33,0,2.65-.06,4-.05q6.45,0,12.9.11s0,.05.07.09c-.21,0-.43,0-.66,0l-16.16.19c-.41,0-.85-.12-1.3-.12-1.3,0-2.6,0-3.91,0,.11.15,0,.32.38.45.9.35,2,.69,3,1.05-2,.33-2,.32-3.37,0a7.12,7.12,0,0,0-1.12-.1,29.62,29.62,0,0,0-6.71.59,3.81,3.81,0,0,1-1.12.24c-1.91,0-3.84,0-5.75,0-3.45,0-6.06.52-5.16,1.1.62.4-1.45,1.24-3.21,1.29-3.39.09-4.11.49-4.32.87-.08.14.34.32,0,.42-1.61.44-.72.77,1,1l-1.45.35c.82.1,1.57.23,2.48.28s2.32-.05,2.88,0a63.48,63.48,0,0,0,8.48.34c1.85,0,3.74-.1,5.81-.16-.22.57-2.41,1.24,3,1.35l-.52.64c1.91.11,3.95.14,5.19.32a24,24,0,0,0,5.25.15,4.82,4.82,0,0,0,1.68-.54l-.16-.15c1.61.09,3.65.1,4.76.28a44.68,44.68,0,0,0,10.24.23c.54-.05,1.3-.06,2-.06,3.43,0,6.86,0,10.27,0,3,0,5.88-.17,8.84-.2,2.5,0,5.17,0,7.5.1a97.22,97.22,0,0,0,10.91.08,7.26,7.26,0,0,1,1.07,0c2.27.4,2.94-.16,4.38-.24a1.17,1.17,0,0,0,.94-.5c.12-.15-.33-.31-.11-.45.56-.34,2.23-.7,1.83-1s.54-.52,1.42-.75l-2.7-.25c2.78-.25,1.1-1,4.5-1.12l-1.14-.11,2.75-1.65Zm-42.38-4.09c1-.11,2-.25,3-.33.45,0,1.18.05,2.47.11l-1.91.12.06,0,2.56,0A23.54,23.54,0,0,1,310.39,399.48Zm35.9,7.43c-.48,0-1-.08-1.44-.08-.8,0-1.6,0-2.4.06-1.35,0-2.72.06-4,0a4.68,4.68,0,0,1-1.19-.29l.44-.13,8.82.24Zm-22.68-18.49c0-.12.25-.27-.06-.37-1-.31-.75-.46,1.4-.47a58.63,58.63,0,0,1,8.32.13c.51.08,1.11.23,1,.32a19.54,19.54,0,0,1-2.18,1.71,6.13,6.13,0,0,1-2.83.27c-3.84-.09-7.75-.16-11.62-.15-3.51,0-6.88-.72-5.5-1.28a3.92,3.92,0,0,1,.83-.13l6.37-.52a21.39,21.39,0,0,0,2.1.48C321.88,388.46,322.88,388.41,323.62,388.41Zm-36.79,4.91c-.42-.26-.91-.52-1.42-.81a53.12,53.12,0,0,1,7.71.1,10.34,10.34,0,0,0,4.95-.82,6,6,0,0,1,2.79-.29c1.67.09,4.13-.08,4.56.48a14.09,14.09,0,0,0,2.79.76c.29.08.45.21.32.31a7.64,7.64,0,0,1-1.06.5c-3.13.14-6,.24-8.8.4a44.67,44.67,0,0,1-5.66.2c-1.57-.08-3.45,0-4.93,0C287.65,393.89,287.28,393.61,286.83,393.33Zm60.11-4.06.57-.35-.57.08-9.25-1.45.33-.14c1,0,2,0,2.94,0,3.65.09,7.43-.1,11,.28,3.32.35,4.49,1.16,1.84,1.63a10.67,10.67,0,0,1-1.77.13C350.34,389.41,348.73,389.33,346.94,389.27ZM152,407.38c.57.34,1.54.71,1.87,1a34,34,0,0,0,5.38,3.08c1.2.62,2.48,1.14,3.86,1.76-.4.43-2.13.33,1.35,2.18l-.62.4,5,2.84a51.3,51.3,0,0,0,6.79,3.56,5.94,5.94,0,0,0,2.13.46l-.22-.28,5.35,2.91.48-.59a89.17,89.17,0,0,0,8.29-12c.39-.68,1-1.6,1.53-2.39l4.5-6.72,3.42-5.48c1-1.53,2.07-3.16,3.12-4.5a51.9,51.9,0,0,0,4.48-6.58,3.69,3.69,0,0,1,.45-.64c1.25-1.16,1.06-1.88,1.58-2.79a.85.85,0,0,0,0-.85c-.07-.16-.39,0-.42-.18-.06-.52.32-1.74-.07-1.66s-.22-.62,0-1.28l-1.31,1.5c.92-1.83-.36-1.2.89-3.35l-.55.63-.26-2.58-2.31,3.47c-.18-.12-.22-.55-.59-.32-1,.62-1.93,2.45-2.72,3.71a7.94,7.94,0,0,1-1.65,2.12,6.42,6.42,0,0,0-1.47,1.74l-.85,1.18-.1-.06,2.29-3.75c-.6.75-1.09,1.5-1.6,2.24l-3.67,5.43c-1,1.4-2.66,2.93-2.46,1.85a27.71,27.71,0,0,1,.84-2.88,7.57,7.57,0,0,1,.52-.78l.15.24.94-1.89-.85.95c-.19-.08-.36-.09-.46-.2-.28-.3-.92-.13-.35-1.58a8.13,8.13,0,0,0,.64-1.69c-.06-.3.12-.56.52-1.19a7.53,7.53,0,0,0,.87-1.73c0-.35-.31-.24-.54-.35l.24-.53-1.47,2.12.13.33c-.71.93-1.39,1.74-2,2.62s-1.14,1.84-1.81,2.94l.12-.52-1,1.26a2,2,0,0,0-.83.16,3.57,3.57,0,0,0-.82.88c-1.14,2-2.56,3.6-3.78,5.46-.3.45-.65.95-.87,1.36-.55,1.06-1.24,2.19-1.87,3.23l-1.46,2.47-2.33,4.2-2.27-.79c-.79-.25-2-.79-1.82-.16.1.35-.23.2-1.36-.45l-.87-.43-7.31-3.67a10.35,10.35,0,0,1-1-.68h.19l-7.45-3.54c.08.49-.69.35-1.72-.13a10.19,10.19,0,0,1-1.28.79c-.65.29.08.89,2.26,1.85l4.12,1.9c.88.41,1.86.93,2.63,1.2a70.71,70.71,0,0,1,7.09,2.89l1.65.69,2.54,1c-.32.5.17.91,2,1.81l2.74,1.31,1,.49,5-7.34h.09l-.25.46-4.73,7.34L175.8,411c-.3-.14-.61-.43-.93-.6L172.1,409c0,.19-.06.33.16.58.57.68,1.34,1.44,2.17,2.26a4.38,4.38,0,0,1-2.67-1.39,6,6,0,0,0-.86-.54,16.35,16.35,0,0,0-4.93-1.8,2.16,2.16,0,0,1-.84-.15l-3.76-1.86c-2.24-1.15-4.19-1.52-3.86-.7.23.56-1.5.64-2.67.1-2.26-1-2.91-.9-3.21-.64-.11.1.08.4-.21.37-1.25-.13-.81.45.2,1.24l-1.11-.16C151,406.68,151.43,407,152,407.38ZM202.89,390l3.77-5.22.06.2c-.22.28-.46.54-.65.83l-.92,1.49-1.61,2.47a2.68,2.68,0,0,1-.73.56ZM187,400.68a17.23,17.23,0,0,1,1.09-1.44l-.67,1.23.05,0,1-1.57a12.6,12.6,0,0,1-2.45,3.83Zm-6-7.72c-1.42,2.14-3.38,3.78-3.3,2.63a2.22,2.22,0,0,1,.23-.58l2.15-4.16a12.34,12.34,0,0,0,1.25-1,12.54,12.54,0,0,0,.89-1.3c-.1-.07-.13-.3-.33-.17-.68.45-.69.2.17-1.11a31.27,31.27,0,0,1,3.48-5c.27-.27.64-.55.67-.43a16.1,16.1,0,0,1,.54,2.27c.06.35-.24.91-.92,1.87C184.13,388.27,182.49,390.6,180.93,393Zm-1.28,7.14a.27.27,0,0,1,.31.08,2.54,2.54,0,0,1,.17.64l-1.76,3.37-.73,1.49a5.05,5.05,0,0,1-.88-.46,15.89,15.89,0,0,0-1.94-.93l-.37-1.14-.31-1.06a6.38,6.38,0,0,1,2.32,1.27,1.29,1.29,0,0,0,.63.26l0-.12a6.1,6.1,0,0,0,.15-1.55,1.1,1.1,0,0,1,.28-1c.31-.29.55-1,1-.66C178.8,400.49,179.27,400.21,179.66,400.1ZM193,370.94c1.64-1.82,2.78-2.09,2.1-.21a5.75,5.75,0,0,1-.6,1.15l-2.2,3-.06-.54-.17.39-5,4.81,0-.28,1.19-1.79A72.58,72.58,0,0,1,193,370.94Z"/></svg>