<!DOCTYPE svg PUBLIC "-//W3C//DTD SVG 1.1//EN" "http://www.w3.org/Graphics/SVG/1.1/DTD/svg11.dtd">
<!-- Uploaded to: SVG Repo, www.svgrepo.com, Transformed by: SVG Repo Mixer Tools -->
<svg width="800px" height="800px" viewBox="-2.4 -2.4 28.80 28.80" fill="none" xmlns="http://www.w3.org/2000/svg" stroke="#fff" stroke-width="1.2" transform="matrix(1, 0, 0, 1, 0, 0)rotate(0)">
<g id="SVGRepo_bgCarrier" stroke-width="0"/>
<g id="SVGRepo_tracerCarrier" stroke-linecap="round" stroke-linejoin="round"/>
<g id="SVGRepo_iconCarrier"> <path d="M5 4H17M5 8H13M5 12H9M5 16H8M5 20H11M16.4729 17.4525C17.046 16.8743 17.4 16.0785 17.4 15.2C17.4 13.4327 15.9673 12 14.2 12C12.4327 12 11 13.4327 11 15.2C11 16.9673 12.4327 18.4 14.2 18.4C15.0888 18.4 15.893 18.0376 16.4729 17.4525ZM16.4729 17.4525L19 20" stroke="#707070" stroke-linecap="round" stroke-linejoin="round"/> </g>
</svg>